<svg width="25" height="26" viewBox="0 0 25 26" fill="none" xmlns="http://www.w3.org/2000/svg">
<path d="M12.4087 0.988281C5.55909 0.988281 0 6.54737 0 13.397C0 20.2466 5.55909 25.8057 12.4087 25.8057C19.2583 25.8057 24.8174 20.2466 24.8174 13.397C24.8174 6.54737 19.2583 0.988281 12.4087 0.988281ZM12.4087 5.95176C14.8036 5.95176 16.7517 7.89992 16.7517 10.2948C16.7517 12.6897 14.8036 14.6378 12.4087 14.6378C10.0138 14.6378 8.06565 12.6897 8.06565 10.2948C8.06565 7.89992 10.0138 5.95176 12.4087 5.95176ZM12.4087 23.3239C9.88972 23.3239 6.91164 22.3064 4.78975 19.7502C6.96326 18.0449 9.64604 17.1181 12.4087 17.1181C15.1713 17.1181 17.8541 18.0449 20.0276 19.7502C17.9057 22.3064 14.9276 23.3239 12.4087 23.3239Z" fill="#CBD5E1"/>
</svg>
