<svg width="24" height="25" viewBox="0 0 24 25" fill="none" xmlns="http://www.w3.org/2000/svg">
<rect y="0.988281" width="24" height="24" rx="6" fill="#221E42"/>
<path d="M12 19.9883C11.344 19.9883 10.8121 19.4565 10.8121 18.8004V7.17616C10.8121 6.52011 11.344 5.98828 12 5.98828C12.656 5.98828 13.1879 6.52011 13.1879 7.17616V18.8004C13.1879 19.4565 12.656 19.9883 12 19.9883ZM6.18788 14.1762C5.53183 14.1762 5 13.6443 5 12.9883C5 12.3322 5.53183 11.8004 6.18788 11.8004H17.8121C18.4682 11.8004 19 12.3322 19 12.9883C19 13.6443 18.4682 14.1762 17.8121 14.1762H6.18788Z" fill="#704EF4"/>
</svg>
