<svg width="71" height="91" viewBox="0 0 71 91" fill="none" xmlns="http://www.w3.org/2000/svg">
<rect x="8.5" width="54" height="53" rx="26.5" fill="#0F1820"/>
<path d="M28 26.5C27.7348 26.5 27.4804 26.6054 27.2929 26.7929C27.1054 26.9804 27 27.2348 27 27.5V35.5C27 35.7652 27.1054 36.0196 27.2929 36.2071C27.4804 36.3946 27.7348 36.5 28 36.5C28.2652 36.5 28.5196 36.3946 28.7071 36.2071C28.8946 36.0196 29 35.7652 29 35.5V27.5C29 27.2348 28.8946 26.9804 28.7071 26.7929C28.5196 26.6054 28.2652 26.5 28 26.5ZM33 16.5C32.7348 16.5 32.4804 16.6054 32.2929 16.7929C32.1054 16.9804 32 17.2348 32 17.5V35.5C32 35.7652 32.1054 36.0196 32.2929 36.2071C32.4804 36.3946 32.7348 36.5 33 36.5C33.2652 36.5 33.5196 36.3946 33.7071 36.2071C33.8946 36.0196 34 35.7652 34 35.5V17.5C34 17.2348 33.8946 16.9804 33.7071 16.7929C33.5196 16.6054 33.2652 16.5 33 16.5ZM43 30.5C42.7348 30.5 42.4804 30.6054 42.2929 30.7929C42.1054 30.9804 42 31.2348 42 31.5V35.5C42 35.7652 42.1054 36.0196 42.2929 36.2071C42.4804 36.3946 42.7348 36.5 43 36.5C43.2652 36.5 43.5196 36.3946 43.7071 36.2071C43.8946 36.0196 44 35.7652 44 35.5V31.5C44 31.2348 43.8946 30.9804 43.7071 30.7929C43.5196 30.6054 43.2652 30.5 43 30.5ZM38 22.5C37.7348 22.5 37.4804 22.6054 37.2929 22.7929C37.1054 22.9804 37 23.2348 37 23.5V35.5C37 35.7652 37.1054 36.0196 37.2929 36.2071C37.4804 36.3946 37.7348 36.5 38 36.5C38.2652 36.5 38.5196 36.3946 38.7071 36.2071C38.8946 36.0196 39 35.7652 39 35.5V23.5C39 23.2348 38.8946 22.9804 38.7071 22.7929C38.5196 22.6054 38.2652 22.5 38 22.5Z" fill="white"/>
<path d="M16.432 77L15.748 75.116H11.968L11.284 77H10.096L13.228 68.6H14.488L17.62 77H16.432ZM12.352 74.072H15.364L13.852 69.932L12.352 74.072ZM21.4909 70.844C22.1949 70.844 22.7589 71.068 23.1829 71.516C23.6069 71.956 23.8189 72.556 23.8189 73.316V77H22.7749V73.376C22.7749 72.888 22.6429 72.512 22.3789 72.248C22.1149 71.976 21.7509 71.84 21.2869 71.84C20.7669 71.84 20.3469 72.004 20.0269 72.332C19.7069 72.652 19.5469 73.148 19.5469 73.82V77H18.5029V71H19.5469V71.864C19.9709 71.184 20.6189 70.844 21.4909 70.844ZM30.2444 71H31.2884V77H30.2444V75.968C29.7244 76.76 28.9684 77.156 27.9764 77.156C27.1364 77.156 26.4204 76.852 25.8284 76.244C25.2364 75.628 24.9404 74.88 24.9404 74C24.9404 73.12 25.2364 72.376 25.8284 71.768C26.4204 71.152 27.1364 70.844 27.9764 70.844C28.9684 70.844 29.7244 71.24 30.2444 72.032V71ZM28.1084 76.148C28.7164 76.148 29.2244 75.944 29.6324 75.536C30.0404 75.12 30.2444 74.608 30.2444 74C30.2444 73.392 30.0404 72.884 29.6324 72.476C29.2244 72.06 28.7164 71.852 28.1084 71.852C27.5084 71.852 27.0044 72.06 26.5964 72.476C26.1884 72.884 25.9844 73.392 25.9844 74C25.9844 74.608 26.1884 75.12 26.5964 75.536C27.0044 75.944 27.5084 76.148 28.1084 76.148ZM32.8701 77V68.24H33.9141V77H32.8701ZM39.6948 71H40.8108L38.3628 77.372C38.1068 78.052 37.7468 78.568 37.2828 78.92C36.8268 79.28 36.2988 79.44 35.6988 79.4V78.428C36.4348 78.484 36.9748 78.076 37.3188 77.204L37.4268 76.976L34.8108 71H35.9268L37.9668 75.704L39.6948 71ZM44.9466 72.008H43.3506V75.26C43.3506 75.556 43.4066 75.768 43.5186 75.896C43.6386 76.016 43.8186 76.08 44.0586 76.088C44.2986 76.088 44.5946 76.08 44.9466 76.064V77C44.0346 77.12 43.3666 77.048 42.9426 76.784C42.5186 76.512 42.3066 76.004 42.3066 75.26V72.008H41.1186V71H42.3066V69.632L43.3506 69.32V71H44.9466V72.008ZM46.7106 69.908C46.5106 69.908 46.3426 69.84 46.2066 69.704C46.0706 69.568 46.0026 69.404 46.0026 69.212C46.0026 69.02 46.0706 68.856 46.2066 68.72C46.3426 68.576 46.5106 68.504 46.7106 68.504C46.9026 68.504 47.0666 68.576 47.2026 68.72C47.3386 68.856 47.4066 69.02 47.4066 69.212C47.4066 69.404 47.3386 69.568 47.2026 69.704C47.0666 69.84 46.9026 69.908 46.7106 69.908ZM46.1826 77V71H47.2266V77H46.1826ZM51.6393 77.156C50.7353 77.156 49.9833 76.856 49.3833 76.256C48.7833 75.648 48.4833 74.896 48.4833 74C48.4833 73.104 48.7833 72.356 49.3833 71.756C49.9833 71.148 50.7353 70.844 51.6393 70.844C52.2313 70.844 52.7633 70.988 53.2353 71.276C53.7073 71.556 54.0593 71.936 54.2913 72.416L53.4153 72.92C53.2633 72.6 53.0273 72.344 52.7073 72.152C52.3953 71.96 52.0393 71.864 51.6393 71.864C51.0393 71.864 50.5353 72.068 50.1273 72.476C49.7273 72.884 49.5273 73.392 49.5273 74C49.5273 74.6 49.7273 75.104 50.1273 75.512C50.5353 75.92 51.0393 76.124 51.6393 76.124C52.0393 76.124 52.3993 76.032 52.7193 75.848C53.0393 75.656 53.2833 75.4 53.4513 75.08L54.3393 75.596C54.0833 76.068 53.7153 76.448 53.2353 76.736C52.7553 77.016 52.2233 77.156 51.6393 77.156ZM56.2233 72.62C56.2233 72.852 56.3393 73.04 56.5713 73.184C56.8033 73.32 57.0833 73.432 57.4113 73.52C57.7393 73.6 58.0673 73.696 58.3953 73.808C58.7233 73.912 59.0033 74.096 59.2353 74.36C59.4673 74.616 59.5833 74.948 59.5833 75.356C59.5833 75.9 59.3713 76.336 58.9473 76.664C58.5313 76.992 57.9953 77.156 57.3393 77.156C56.7553 77.156 56.2553 77.028 55.8393 76.772C55.4233 76.516 55.1273 76.176 54.9513 75.752L55.8513 75.236C55.9473 75.524 56.1273 75.752 56.3913 75.92C56.6553 76.088 56.9713 76.172 57.3393 76.172C57.6833 76.172 57.9673 76.108 58.1913 75.98C58.4153 75.844 58.5273 75.636 58.5273 75.356C58.5273 75.124 58.4113 74.94 58.1793 74.804C57.9473 74.66 57.6673 74.548 57.3393 74.468C57.0113 74.38 56.6833 74.28 56.3553 74.168C56.0273 74.056 55.7473 73.872 55.5153 73.616C55.2833 73.36 55.1673 73.032 55.1673 72.632C55.1673 72.112 55.3673 71.684 55.7673 71.348C56.1753 71.012 56.6833 70.844 57.2913 70.844C57.7793 70.844 58.2113 70.956 58.5873 71.18C58.9713 71.396 59.2593 71.7 59.4513 72.092L58.5753 72.584C58.3593 72.072 57.9313 71.816 57.2913 71.816C56.9953 71.816 56.7433 71.888 56.5353 72.032C56.3273 72.168 56.2233 72.364 56.2233 72.62Z" fill="#282F36"/>
</svg>
