<svg width="61" height="38" viewBox="0 0 61 38" fill="none" xmlns="http://www.w3.org/2000/svg">
<path d="M22.25 19.25C21.9903 19.25 21.7724 19.162 21.5964 18.986C21.4204 18.81 21.3327 18.5924 21.3333 18.3333V9.16667C21.3333 8.90695 21.4213 8.68909 21.5973 8.51309C21.7733 8.33709 21.9909 8.24939 22.25 8.25H25.4583C25.7181 8.25 25.9359 8.338 26.1119 8.514C26.2879 8.69 26.3756 8.90756 26.375 9.16667V18.3333C26.375 18.5931 26.287 18.8109 26.111 18.9869C25.935 19.1629 25.7174 19.2506 25.4583 19.25H22.25ZM28.8958 19.25C28.6361 19.25 28.4182 19.162 28.2422 18.986C28.0662 18.81 27.9786 18.5924 27.9792 18.3333V3.66667C27.9792 3.40695 28.0672 3.18909 28.2432 3.01309C28.4192 2.83709 28.6367 2.74939 28.8958 2.75H32.1042C32.3639 2.75 32.5817 2.838 32.7577 3.014C32.9337 3.19 33.0214 3.40756 33.0208 3.66667V18.3333C33.0208 18.5931 32.9328 18.8109 32.7568 18.9869C32.5808 19.1629 32.3633 19.2506 32.1042 19.25H28.8958ZM35.5417 19.25C35.2819 19.25 35.0641 19.162 34.8881 18.986C34.7121 18.81 34.6244 18.5924 34.625 18.3333V11C34.625 10.7403 34.713 10.5224 34.889 10.3464C35.065 10.1704 35.2826 10.0827 35.5417 10.0833H38.75C39.0097 10.0833 39.2276 10.1713 39.4036 10.3473C39.5796 10.5233 39.6673 10.7409 39.6667 11V18.3333C39.6667 18.5931 39.5787 18.8109 39.4027 18.9869C39.2267 19.1629 39.0091 19.2506 38.75 19.25H35.5417Z" fill="#91A6A3"/>
<path d="M1.68 34.12H4.7V35H0.75V28H1.68V34.12ZM5.9575 32.9C6.04417 33.3467 6.2475 33.6933 6.5675 33.94C6.89417 34.1867 7.29417 34.31 7.7675 34.31C8.4275 34.31 8.9075 34.0667 9.2075 33.58L9.9475 34C9.46083 34.7533 8.7275 35.13 7.7475 35.13C6.95417 35.13 6.3075 34.8833 5.8075 34.39C5.31417 33.89 5.0675 33.26 5.0675 32.5C5.0675 31.7467 5.31083 31.12 5.7975 30.62C6.28417 30.12 6.91417 29.87 7.6875 29.87C8.42083 29.87 9.0175 30.13 9.4775 30.65C9.94417 31.1633 10.1775 31.7833 10.1775 32.51C10.1775 32.6367 10.1675 32.7667 10.1475 32.9H5.9575ZM7.6875 30.69C7.22083 30.69 6.83417 30.8233 6.5275 31.09C6.22083 31.35 6.03083 31.7 5.9575 32.14H9.2975C9.22417 31.6667 9.0375 31.3067 8.7375 31.06C8.4375 30.8133 8.0875 30.69 7.6875 30.69ZM15.3078 30H16.1778V35H15.3078V34.14C14.8745 34.8 14.2445 35.13 13.4178 35.13C12.7178 35.13 12.1211 34.8767 11.6278 34.37C11.1345 33.8567 10.8878 33.2333 10.8878 32.5C10.8878 31.7667 11.1345 31.1467 11.6278 30.64C12.1211 30.1267 12.7178 29.87 13.4178 29.87C14.2445 29.87 14.8745 30.2 15.3078 30.86V30ZM13.5278 34.29C14.0345 34.29 14.4578 34.12 14.7978 33.78C15.1378 33.4333 15.3078 33.0067 15.3078 32.5C15.3078 31.9933 15.1378 31.57 14.7978 31.23C14.4578 30.8833 14.0345 30.71 13.5278 30.71C13.0278 30.71 12.6078 30.8833 12.2678 31.23C11.9278 31.57 11.7578 31.9933 11.7578 32.5C11.7578 33.0067 11.9278 33.4333 12.2678 33.78C12.6078 34.12 13.0278 34.29 13.5278 34.29ZM21.6359 28H22.5059V35H21.6359V34.14C21.2026 34.8 20.5726 35.13 19.7459 35.13C19.0459 35.13 18.4493 34.8767 17.9559 34.37C17.4626 33.8567 17.2159 33.2333 17.2159 32.5C17.2159 31.7667 17.4626 31.1467 17.9559 30.64C18.4493 30.1267 19.0459 29.87 19.7459 29.87C20.5726 29.87 21.2026 30.2 21.6359 30.86V28ZM19.8559 34.29C20.3626 34.29 20.7859 34.12 21.1259 33.78C21.4659 33.4333 21.6359 33.0067 21.6359 32.5C21.6359 31.9933 21.4659 31.57 21.1259 31.23C20.7859 30.8833 20.3626 30.71 19.8559 30.71C19.3559 30.71 18.9359 30.8833 18.5959 31.23C18.2559 31.57 18.0859 31.9933 18.0859 32.5C18.0859 33.0067 18.2559 33.4333 18.5959 33.78C18.9359 34.12 19.3559 34.29 19.8559 34.29ZM24.4341 32.9C24.5207 33.3467 24.7241 33.6933 25.0441 33.94C25.3707 34.1867 25.7707 34.31 26.2441 34.31C26.9041 34.31 27.3841 34.0667 27.6841 33.58L28.4241 34C27.9374 34.7533 27.2041 35.13 26.2241 35.13C25.4307 35.13 24.7841 34.8833 24.2841 34.39C23.7907 33.89 23.5441 33.26 23.5441 32.5C23.5441 31.7467 23.7874 31.12 24.2741 30.62C24.7607 30.12 25.3907 29.87 26.1641 29.87C26.8974 29.87 27.4941 30.13 27.9541 30.65C28.4207 31.1633 28.6541 31.7833 28.6541 32.51C28.6541 32.6367 28.6441 32.7667 28.6241 32.9H24.4341ZM26.1641 30.69C25.6974 30.69 25.3107 30.8233 25.0041 31.09C24.6974 31.35 24.5074 31.7 24.4341 32.14H27.7741C27.7007 31.6667 27.5141 31.3067 27.2141 31.06C26.9141 30.8133 26.5641 30.69 26.1641 30.69ZM30.5241 30.84C30.8108 30.22 31.3308 29.91 32.0841 29.91V30.82C31.6575 30.8 31.2908 30.9133 30.9841 31.16C30.6775 31.4067 30.5241 31.8033 30.5241 32.35V35H29.6541V30H30.5241V30.84ZM35.6954 29.87C36.3954 29.87 36.9921 30.1267 37.4854 30.64C37.9787 31.1467 38.2254 31.7667 38.2254 32.5C38.2254 33.2333 37.9787 33.8567 37.4854 34.37C36.9921 34.8767 36.3954 35.13 35.6954 35.13C34.8687 35.13 34.2387 34.8 33.8054 34.14V35H32.9354V28H33.8054V30.86C34.2387 30.2 34.8687 29.87 35.6954 29.87ZM35.5854 34.29C36.0854 34.29 36.5054 34.12 36.8454 33.78C37.1854 33.4333 37.3554 33.0067 37.3554 32.5C37.3554 31.9933 37.1854 31.57 36.8454 31.23C36.5054 30.8833 36.0854 30.71 35.5854 30.71C35.0787 30.71 34.6554 30.8833 34.3154 31.23C33.9754 31.57 33.8054 31.9933 33.8054 32.5C33.8054 33.0067 33.9754 33.4333 34.3154 33.78C34.6554 34.12 35.0787 34.29 35.5854 34.29ZM43.4835 34.37C42.9702 34.8767 42.3468 35.13 41.6135 35.13C40.8802 35.13 40.2568 34.8767 39.7435 34.37C39.2368 33.8633 38.9835 33.24 38.9835 32.5C38.9835 31.76 39.2368 31.1367 39.7435 30.63C40.2568 30.1233 40.8802 29.87 41.6135 29.87C42.3468 29.87 42.9702 30.1233 43.4835 30.63C43.9968 31.1367 44.2535 31.76 44.2535 32.5C44.2535 33.24 43.9968 33.8633 43.4835 34.37ZM41.6135 34.28C42.1135 34.28 42.5335 34.11 42.8735 33.77C43.2135 33.43 43.3835 33.0067 43.3835 32.5C43.3835 31.9933 43.2135 31.57 42.8735 31.23C42.5335 30.89 42.1135 30.72 41.6135 30.72C41.1202 30.72 40.7035 30.89 40.3635 31.23C40.0235 31.57 39.8535 31.9933 39.8535 32.5C39.8535 33.0067 40.0235 33.43 40.3635 33.77C40.7035 34.11 41.1202 34.28 41.6135 34.28ZM49.4191 30H50.2891V35H49.4191V34.14C48.9858 34.8 48.3558 35.13 47.5291 35.13C46.8291 35.13 46.2325 34.8767 45.7391 34.37C45.2458 33.8567 44.9991 33.2333 44.9991 32.5C44.9991 31.7667 45.2458 31.1467 45.7391 30.64C46.2325 30.1267 46.8291 29.87 47.5291 29.87C48.3558 29.87 48.9858 30.2 49.4191 30.86V30ZM47.6391 34.29C48.1458 34.29 48.5691 34.12 48.9091 33.78C49.2491 33.4333 49.4191 33.0067 49.4191 32.5C49.4191 31.9933 49.2491 31.57 48.9091 31.23C48.5691 30.8833 48.1458 30.71 47.6391 30.71C47.1391 30.71 46.7191 30.8833 46.3791 31.23C46.0391 31.57 45.8691 31.9933 45.8691 32.5C45.8691 33.0067 46.0391 33.4333 46.3791 33.78C46.7191 34.12 47.1391 34.29 47.6391 34.29ZM52.4773 30.84C52.7639 30.22 53.2839 29.91 54.0373 29.91V30.82C53.6106 30.8 53.2439 30.9133 52.9373 31.16C52.6306 31.4067 52.4773 31.8033 52.4773 32.35V35H51.6073V30H52.4773V30.84ZM58.7551 28H59.6251V35H58.7551V34.14C58.3217 34.8 57.6917 35.13 56.8651 35.13C56.1651 35.13 55.5684 34.8767 55.0751 34.37C54.5817 33.8567 54.3351 33.2333 54.3351 32.5C54.3351 31.7667 54.5817 31.1467 55.0751 30.64C55.5684 30.1267 56.1651 29.87 56.8651 29.87C57.6917 29.87 58.3217 30.2 58.7551 30.86V28ZM56.9751 34.29C57.4817 34.29 57.9051 34.12 58.2451 33.78C58.5851 33.4333 58.7551 33.0067 58.7551 32.5C58.7551 31.9933 58.5851 31.57 58.2451 31.23C57.9051 30.8833 57.4817 30.71 56.9751 30.71C56.4751 30.71 56.0551 30.8833 55.7151 31.23C55.3751 31.57 55.2051 31.9933 55.2051 32.5C55.2051 33.0067 55.3751 33.4333 55.7151 33.78C56.0551 34.12 56.4751 34.29 56.9751 34.29Z" fill="#91A6A3"/>
</svg>
