<svg width="58" height="89" viewBox="0 0 58 89" fill="none" xmlns="http://www.w3.org/2000/svg">
<rect x="2.5" y="53.5" width="53" height="53" rx="26.5" transform="rotate(-90 2.5 53.5)" fill="#0F1820"/>
<path d="M30.5 20.25C30.5 20.4489 30.579 20.6397 30.7197 20.7803C30.8603 20.921 31.0511 21 31.25 21H34.25C34.4489 21 34.6397 21.079 34.7803 21.2197C34.921 21.3603 35 21.5511 35 21.75V32.25C35 32.4489 34.921 32.6397 34.7803 32.7803C34.6397 32.921 34.4489 33 34.25 33H31.25C31.0511 33 30.8603 33.079 30.7197 33.2197C30.579 33.3603 30.5 33.5511 30.5 33.75C30.5 33.9489 30.579 34.1397 30.7197 34.2803C30.8603 34.421 31.0511 34.5 31.25 34.5H34.25C34.8467 34.5 35.419 34.2629 35.841 33.841C36.2629 33.419 36.5 32.8467 36.5 32.25V21.75C36.5 21.1533 36.2629 20.581 35.841 20.159C35.419 19.7371 34.8467 19.5 34.25 19.5H31.25C31.0511 19.5 30.8603 19.579 30.7197 19.7197C30.579 19.8603 30.5 20.0511 30.5 20.25ZM31.7825 27.5325C31.8508 27.4612 31.9043 27.3771 31.94 27.285C31.9797 27.1952 32.0002 27.0982 32.0002 27C32.0002 26.9018 31.9797 26.8048 31.94 26.715C31.9043 26.6229 31.8508 26.5388 31.7825 26.4675L28.7825 23.4675C28.6413 23.3263 28.4497 23.2469 28.25 23.2469C28.0503 23.2469 27.8587 23.3263 27.7175 23.4675C27.5763 23.6087 27.4969 23.8003 27.4969 24C27.4969 24.1997 27.5763 24.3913 27.7175 24.5325L29.4425 26.25H22.25C22.0511 26.25 21.8603 26.329 21.7197 26.4697C21.579 26.6103 21.5 26.8011 21.5 27C21.5 27.1989 21.579 27.3897 21.7197 27.5303C21.8603 27.671 22.0511 27.75 22.25 27.75H29.4425L27.7175 29.4675C27.6476 29.5374 27.5921 29.6204 27.5543 29.7118C27.5164 29.8032 27.4969 29.9011 27.4969 30C27.4969 30.0989 27.5164 30.1968 27.5543 30.2882C27.5921 30.3796 27.6476 30.4626 27.7175 30.5325C27.7874 30.6024 27.8704 30.6579 27.9618 30.6957C28.0532 30.7336 28.1511 30.7531 28.25 30.7531C28.3489 30.7531 28.4468 30.7336 28.5382 30.6957C28.6296 30.6579 28.7126 30.6024 28.7825 30.5325L31.7825 27.5325Z" fill="white"/>
<path d="M14.848 74.656C13.576 74.656 12.524 74.236 11.692 73.396C10.868 72.556 10.456 71.524 10.456 70.3C10.456 69.076 10.868 68.044 11.692 67.204C12.524 66.364 13.576 65.944 14.848 65.944C15.616 65.944 16.32 66.128 16.96 66.496C17.608 66.864 18.112 67.36 18.472 67.984L17.5 68.548C17.26 68.084 16.9 67.716 16.42 67.444C15.948 67.164 15.424 67.024 14.848 67.024C13.88 67.024 13.088 67.336 12.472 67.96C11.864 68.584 11.56 69.364 11.56 70.3C11.56 71.228 11.864 72.004 12.472 72.628C13.088 73.252 13.88 73.564 14.848 73.564C15.424 73.564 15.948 73.428 16.42 73.156C16.9 72.876 17.26 72.508 17.5 72.052L18.472 72.604C18.12 73.228 17.62 73.728 16.972 74.104C16.324 74.472 15.616 74.656 14.848 74.656ZM20.7071 69.508C21.0511 68.764 21.6751 68.392 22.5791 68.392V69.484C22.0671 69.46 21.6271 69.596 21.2591 69.892C20.8911 70.188 20.7071 70.664 20.7071 71.32V74.5H19.6631V68.5H20.7071V69.508ZM27.9175 68.5H29.0335L26.5855 74.872C26.3295 75.552 25.9695 76.068 25.5055 76.42C25.0495 76.78 24.5215 76.94 23.9215 76.9V75.928C24.6575 75.984 25.1975 75.576 25.5415 74.704L25.6495 74.476L23.0335 68.5H24.1495L26.1895 73.204L27.9175 68.5ZM33.2173 68.344C34.0573 68.344 34.7733 68.652 35.3653 69.268C35.9573 69.876 36.2533 70.62 36.2533 71.5C36.2533 72.38 35.9573 73.128 35.3653 73.744C34.7733 74.352 34.0573 74.656 33.2173 74.656C32.2253 74.656 31.4693 74.26 30.9493 73.468V76.9H29.9053V68.5H30.9493V69.532C31.4693 68.74 32.2253 68.344 33.2173 68.344ZM33.0853 73.648C33.6853 73.648 34.1893 73.444 34.5973 73.036C35.0053 72.62 35.2093 72.108 35.2093 71.5C35.2093 70.892 35.0053 70.384 34.5973 69.976C34.1893 69.56 33.6853 69.352 33.0853 69.352C32.4773 69.352 31.9693 69.56 31.5613 69.976C31.1533 70.384 30.9493 70.892 30.9493 71.5C30.9493 72.108 31.1533 72.62 31.5613 73.036C31.9693 73.444 32.4773 73.648 33.0853 73.648ZM40.6341 69.508H39.0381V72.76C39.0381 73.056 39.0941 73.268 39.2061 73.396C39.3261 73.516 39.5061 73.58 39.7461 73.588C39.9861 73.588 40.2821 73.58 40.6341 73.564V74.5C39.7221 74.62 39.0541 74.548 38.6301 74.284C38.2061 74.012 37.9941 73.504 37.9941 72.76V69.508H36.8061V68.5H37.9941V67.132L39.0381 66.82V68.5H40.6341V69.508ZM46.6294 73.744C46.0134 74.352 45.2654 74.656 44.3854 74.656C43.5054 74.656 42.7574 74.352 42.1414 73.744C41.5334 73.136 41.2294 72.388 41.2294 71.5C41.2294 70.612 41.5334 69.864 42.1414 69.256C42.7574 68.648 43.5054 68.344 44.3854 68.344C45.2654 68.344 46.0134 68.648 46.6294 69.256C47.2454 69.864 47.5534 70.612 47.5534 71.5C47.5534 72.388 47.2454 73.136 46.6294 73.744ZM44.3854 73.636C44.9854 73.636 45.4894 73.432 45.8974 73.024C46.3054 72.616 46.5094 72.108 46.5094 71.5C46.5094 70.892 46.3054 70.384 45.8974 69.976C45.4894 69.568 44.9854 69.364 44.3854 69.364C43.7934 69.364 43.2934 69.568 42.8854 69.976C42.4774 70.384 42.2734 70.892 42.2734 71.5C42.2734 72.108 42.4774 72.616 42.8854 73.024C43.2934 73.432 43.7934 73.636 44.3854 73.636Z" fill="#282F36"/>
</svg>
