<svg width="32" height="26" viewBox="0 0 32 26" fill="none" xmlns="http://www.w3.org/2000/svg">
<path d="M20.1641 16.4991V11.8459H24.8174V8.74371L31.0217 14.1725L24.8174 19.6013V16.4991H20.1641ZM18.613 6.7273V8.74371H0V6.7273L9.30651 0.988281L18.613 6.7273ZM7.75543 10.2948H10.8576V18.0502H7.75543V10.2948ZM1.55109 10.2948H4.65326V18.0502H1.55109V10.2948ZM17.0619 10.2948V14.1725L13.9598 16.9645V10.2948H17.0619ZM11.0127 19.6013L10.0821 20.3769L12.7189 22.7035H0V19.6013H11.0127ZM23.2663 18.0502V22.7035H18.613V25.8057L12.4087 20.3769L18.613 14.9481V18.0502H23.2663Z" fill="#CBD5E1"/>
</svg>
