<svg width="35" height="18" viewBox="0 0 35 18" fill="none" xmlns="http://www.w3.org/2000/svg">
<g clip-path="url(#clip0_166_1027)">
<path d="M25.1993 9.68794C27.0408 8.63029 28.8773 7.56402 30.7251 6.51743C32.4789 5.52363 34.5423 6.44005 34.94 8.3738C35.1701 9.49243 34.6706 10.7009 33.6607 11.2895C30.3497 13.219 27.0338 15.1408 23.7014 17.0333C22.67 17.619 21.6076 17.5113 20.6676 16.7935C19.7128 16.0648 19.4119 15.0596 19.6358 13.8897C19.8915 12.9991 20.4766 12.4037 21.2747 11.9583C22.594 11.2219 23.8922 10.4467 25.1993 9.68794Z" fill="#CBD5E1"/>
<path d="M26.5512 8.91896C24.7144 7.8531 22.8729 6.79558 21.0425 5.71892C19.305 4.69681 19.0671 2.45162 20.5428 1.14021C21.3965 0.38183 22.6927 0.209975 23.7074 0.790346C27.0341 2.69306 30.3563 4.60384 33.6614 6.54347C34.6843 7.1438 35.1221 8.11792 34.9707 9.29083C34.8169 10.4819 34.0971 11.2451 32.9719 11.6362C32.0727 11.8602 31.2646 11.651 30.4798 11.1826C29.1823 10.4081 27.8619 9.67146 26.5512 8.91896Z" fill="#CBD5E1"/>
<path d="M9.80982 8.16487C8.63117 8.83452 7.45183 9.50293 6.27427 10.1746C5.58562 10.5676 4.90435 10.9739 4.21214 11.3603C2.8172 12.1389 1.1599 11.6825 0.368978 10.3111C-0.385846 9.00241 0.0479623 7.30573 1.39136 6.52151C4.67603 4.6043 7.96917 2.70104 11.2742 0.818968C12.2878 0.241879 13.3395 0.314476 14.2768 1.0045C15.2661 1.7328 15.59 2.75764 15.3678 3.95899C15.23 4.24979 15.1477 4.59063 14.9413 4.81963C14.6058 5.19219 14.2243 5.54889 13.7997 5.81084C12.4855 6.62118 11.1419 7.38379 9.80982 8.16487Z" fill="#CBD5E1"/>
<path d="M8.45839 8.916C9.62774 9.60179 10.7963 10.2891 11.9667 10.9729C12.6513 11.373 13.3438 11.7598 14.0245 12.1659C15.3963 12.9849 15.8299 14.6482 15.0376 16.0188C14.2815 17.3269 12.5954 17.7997 11.2444 17.0282C7.94173 15.1422 4.64694 13.2421 1.3646 11.3208C0.357937 10.7315 -0.104992 9.78444 0.0239335 8.62767C0.159969 7.40663 0.885535 6.6138 2.03712 6.20542C2.35772 6.17958 2.69405 6.08032 2.99565 6.14458C3.48606 6.24903 3.98577 6.40093 4.42491 6.63772C5.78376 7.37054 7.11594 8.15284 8.45839 8.916Z" fill="#CBD5E1"/>
</g>
<defs>
<clipPath id="clip0_166_1027">
<rect width="35" height="17.0898" fill="white" transform="translate(0 0.431641)"/>
</clipPath>
</defs>
</svg>
