<svg width="100" height="89" viewBox="0 0 100 89" fill="none" xmlns="http://www.w3.org/2000/svg">
<rect x="23.5" y="0.5" width="53" height="53" rx="26.5" fill="#0F1820"/>
<path d="M52.2499 34.5C52.4488 34.5 52.6396 34.421 52.7802 34.2803C52.9209 34.1397 52.9999 33.9489 52.9999 33.75C52.9999 33.5511 52.9209 33.3603 52.7802 33.2197C52.6396 33.079 52.4488 33 52.2499 33H45.9999C45.4694 33 44.9607 32.7893 44.5857 32.4142C44.2106 32.0391 43.9999 31.5304 43.9999 31V23C43.9999 22.4696 44.2106 21.9609 44.5857 21.5858C44.9607 21.2107 45.4694 21 45.9999 21H52.2499C52.4488 21 52.6396 20.921 52.7802 20.7803C52.9209 20.6397 52.9999 20.4489 52.9999 20.25C52.9999 20.0511 52.9209 19.8603 52.7802 19.7197C52.6396 19.579 52.4488 19.5 52.2499 19.5H45.9999C45.0716 19.5 44.1814 19.8687 43.525 20.5251C42.8686 21.1815 42.4999 22.0717 42.4999 23V31C42.4999 31.9283 42.8686 32.8185 43.525 33.4749C44.1814 34.1313 45.0716 34.5 45.9999 34.5H52.2499ZM53.2409 23.199C53.3132 23.1321 53.398 23.0802 53.4905 23.0461C53.5829 23.012 53.6811 22.9965 53.7796 23.0004C53.878 23.0043 53.9747 23.0276 54.0642 23.0689C54.1536 23.1101 54.234 23.1686 54.3009 23.241L57.3009 26.491C57.4289 26.6296 57.5 26.8113 57.5 27C57.5 27.1887 57.4289 27.3704 57.3009 27.509L54.3009 30.759C54.1657 30.905 53.9782 30.9913 53.7794 30.999C53.5806 31.0067 53.3869 30.9351 53.2409 30.8C53.0949 30.6649 53.0085 30.4773 53.0008 30.2785C52.9932 30.0797 53.0647 29.886 53.1999 29.74L55.0379 27.749H47.2499C47.051 27.749 46.8602 27.67 46.7195 27.5293C46.5789 27.3887 46.4999 27.1979 46.4999 26.999C46.4999 26.8001 46.5789 26.6093 46.7195 26.4687C46.8602 26.328 47.051 26.249 47.2499 26.249H55.0369L53.1989 24.258C53.132 24.1856 53.0801 24.1008 53.046 24.0084C53.0119 23.916 52.9964 23.8177 53.0003 23.7193C53.0042 23.6209 53.0274 23.5242 53.0687 23.4347C53.11 23.3453 53.1685 23.2658 53.2409 23.199Z" fill="white"/>
<path d="M12.016 73.444H15.916V74.5H10.9V66.1H15.856V67.156H12.016V69.736H15.556V70.78H12.016V73.444ZM22.3633 74.5H21.1393L19.4593 72.232L17.7673 74.5H16.5433L18.8473 71.416L16.6753 68.5H17.9113L19.4593 70.588L21.0073 68.5H22.2313L20.0713 71.404L22.3633 74.5ZM26.6431 68.344C27.4831 68.344 28.1991 68.652 28.7911 69.268C29.3831 69.876 29.6791 70.62 29.6791 71.5C29.6791 72.38 29.3831 73.128 28.7911 73.744C28.1991 74.352 27.4831 74.656 26.6431 74.656C25.6511 74.656 24.8951 74.26 24.3751 73.468V76.9H23.3311V68.5H24.3751V69.532C24.8951 68.74 25.6511 68.344 26.6431 68.344ZM26.5111 73.648C27.1111 73.648 27.6151 73.444 28.0231 73.036C28.4311 72.62 28.6351 72.108 28.6351 71.5C28.6351 70.892 28.4311 70.384 28.0231 69.976C27.6151 69.56 27.1111 69.352 26.5111 69.352C25.9031 69.352 25.3951 69.56 24.9871 69.976C24.5791 70.384 24.3751 70.892 24.3751 71.5C24.3751 72.108 24.5791 72.62 24.9871 73.036C25.3951 73.444 25.9031 73.648 26.5111 73.648ZM30.9248 74.5V65.74H31.9688V74.5H30.9248ZM38.6255 73.744C38.0095 74.352 37.2615 74.656 36.3815 74.656C35.5015 74.656 34.7535 74.352 34.1375 73.744C33.5295 73.136 33.2255 72.388 33.2255 71.5C33.2255 70.612 33.5295 69.864 34.1375 69.256C34.7535 68.648 35.5015 68.344 36.3815 68.344C37.2615 68.344 38.0095 68.648 38.6255 69.256C39.2415 69.864 39.5495 70.612 39.5495 71.5C39.5495 72.388 39.2415 73.136 38.6255 73.744ZM36.3815 73.636C36.9815 73.636 37.4855 73.432 37.8935 73.024C38.3015 72.616 38.5055 72.108 38.5055 71.5C38.5055 70.892 38.3015 70.384 37.8935 69.976C37.4855 69.568 36.9815 69.364 36.3815 69.364C35.7895 69.364 35.2895 69.568 34.8815 69.976C34.4735 70.384 34.2695 70.892 34.2695 71.5C34.2695 72.108 34.4735 72.616 34.8815 73.024C35.2895 73.432 35.7895 73.636 36.3815 73.636ZM41.8243 69.508C42.1683 68.764 42.7923 68.392 43.6963 68.392V69.484C43.1843 69.46 42.7443 69.596 42.3763 69.892C42.0083 70.188 41.8243 70.664 41.8243 71.32V74.5H40.7803V68.5H41.8243V69.508ZM45.1217 71.98C45.2257 72.516 45.4697 72.932 45.8537 73.228C46.2457 73.524 46.7257 73.672 47.2937 73.672C48.0857 73.672 48.6617 73.38 49.0217 72.796L49.9097 73.3C49.3257 74.204 48.4457 74.656 47.2697 74.656C46.3177 74.656 45.5417 74.36 44.9417 73.768C44.3497 73.168 44.0537 72.412 44.0537 71.5C44.0537 70.596 44.3457 69.844 44.9297 69.244C45.5137 68.644 46.2697 68.344 47.1977 68.344C48.0777 68.344 48.7937 68.656 49.3457 69.28C49.9057 69.896 50.1857 70.64 50.1857 71.512C50.1857 71.664 50.1737 71.82 50.1497 71.98H45.1217ZM47.1977 69.328C46.6377 69.328 46.1737 69.488 45.8057 69.808C45.4377 70.12 45.2097 70.54 45.1217 71.068H49.1297C49.0417 70.5 48.8177 70.068 48.4577 69.772C48.0977 69.476 47.6777 69.328 47.1977 69.328ZM57.2058 74.656C56.4218 74.656 55.7498 74.472 55.1898 74.104C54.6378 73.736 54.2498 73.232 54.0258 72.592L54.9858 72.04C55.3138 73.056 56.0618 73.564 57.2298 73.564C57.8058 73.564 58.2458 73.448 58.5498 73.216C58.8538 72.976 59.0058 72.66 59.0058 72.268C59.0058 71.868 58.8538 71.568 58.5498 71.368C58.2458 71.168 57.7378 70.956 57.0258 70.732C56.6738 70.62 56.4058 70.532 56.2218 70.468C56.0378 70.396 55.8058 70.292 55.5258 70.156C55.2538 70.012 55.0498 69.868 54.9138 69.724C54.7778 69.572 54.6538 69.376 54.5418 69.136C54.4378 68.896 54.3857 68.624 54.3857 68.32C54.3857 67.592 54.6418 67.016 55.1538 66.592C55.6658 66.16 56.2898 65.944 57.0258 65.944C57.6898 65.944 58.2658 66.112 58.7538 66.448C59.2498 66.784 59.6218 67.228 59.8698 67.78L58.9338 68.32C58.5738 67.456 57.9378 67.024 57.0258 67.024C56.5698 67.024 56.2018 67.136 55.9218 67.36C55.6418 67.584 55.5018 67.888 55.5018 68.272C55.5018 68.64 55.6338 68.92 55.8978 69.112C56.1618 69.304 56.6178 69.504 57.2658 69.712C57.4978 69.784 57.6618 69.836 57.7578 69.868C57.8538 69.9 58.0018 69.956 58.2018 70.036C58.4098 70.116 58.5618 70.18 58.6578 70.228C58.7538 70.276 58.8818 70.344 59.0418 70.432C59.2098 70.52 59.3338 70.604 59.4138 70.684C59.4938 70.764 59.5858 70.864 59.6898 70.984C59.8018 71.096 59.8818 71.212 59.9297 71.332C59.9778 71.452 60.0178 71.592 60.0498 71.752C60.0898 71.904 60.1098 72.068 60.1098 72.244C60.1098 72.98 59.8418 73.568 59.3058 74.008C58.7698 74.44 58.0698 74.656 57.2058 74.656ZM64.4115 69.508H62.8155V72.76C62.8155 73.056 62.8715 73.268 62.9835 73.396C63.1035 73.516 63.2835 73.58 63.5235 73.588C63.7635 73.588 64.0595 73.58 64.4115 73.564V74.5C63.4995 74.62 62.8315 74.548 62.4075 74.284C61.9835 74.012 61.7715 73.504 61.7715 72.76V69.508H60.5835V68.5H61.7715V67.132L62.8155 66.82V68.5H64.4115V69.508ZM70.4068 73.744C69.7908 74.352 69.0428 74.656 68.1628 74.656C67.2828 74.656 66.5348 74.352 65.9188 73.744C65.3108 73.136 65.0068 72.388 65.0068 71.5C65.0068 70.612 65.3108 69.864 65.9188 69.256C66.5348 68.648 67.2828 68.344 68.1628 68.344C69.0428 68.344 69.7908 68.648 70.4068 69.256C71.0228 69.864 71.3308 70.612 71.3308 71.5C71.3308 72.388 71.0228 73.136 70.4068 73.744ZM68.1628 73.636C68.7628 73.636 69.2668 73.432 69.6748 73.024C70.0828 72.616 70.2868 72.108 70.2868 71.5C70.2868 70.892 70.0828 70.384 69.6748 69.976C69.2668 69.568 68.7628 69.364 68.1628 69.364C67.5708 69.364 67.0708 69.568 66.6628 69.976C66.2548 70.384 66.0508 70.892 66.0508 71.5C66.0508 72.108 66.2548 72.616 66.6628 73.024C67.0708 73.432 67.5708 73.636 68.1628 73.636ZM75.3815 74.656C74.4775 74.656 73.7255 74.356 73.1255 73.756C72.5255 73.148 72.2255 72.396 72.2255 71.5C72.2255 70.604 72.5255 69.856 73.1255 69.256C73.7255 68.648 74.4775 68.344 75.3815 68.344C75.9735 68.344 76.5055 68.488 76.9775 68.776C77.4495 69.056 77.8015 69.436 78.0335 69.916L77.1575 70.42C77.0055 70.1 76.7695 69.844 76.4495 69.652C76.1375 69.46 75.7815 69.364 75.3815 69.364C74.7815 69.364 74.2775 69.568 73.8695 69.976C73.4695 70.384 73.2695 70.892 73.2695 71.5C73.2695 72.1 73.4695 72.604 73.8695 73.012C74.2775 73.42 74.7815 73.624 75.3815 73.624C75.7815 73.624 76.1415 73.532 76.4615 73.348C76.7815 73.156 77.0255 72.9 77.1935 72.58L78.0815 73.096C77.8255 73.568 77.4575 73.948 76.9775 74.236C76.4975 74.516 75.9655 74.656 75.3815 74.656ZM84.1883 74.5H82.8923L80.1563 71.656V74.5H79.1123V66.1H80.1563V71.152L82.7483 68.5H84.0923L81.2243 71.404L84.1883 74.5ZM85.6022 70.12C85.6022 70.352 85.7182 70.54 85.9502 70.684C86.1822 70.82 86.4622 70.932 86.7902 71.02C87.1182 71.1 87.4462 71.196 87.7742 71.308C88.1022 71.412 88.3822 71.596 88.6142 71.86C88.8462 72.116 88.9622 72.448 88.9622 72.856C88.9622 73.4 88.7502 73.836 88.3262 74.164C87.9102 74.492 87.3742 74.656 86.7182 74.656C86.1342 74.656 85.6342 74.528 85.2182 74.272C84.8022 74.016 84.5062 73.676 84.3302 73.252L85.2302 72.736C85.3262 73.024 85.5062 73.252 85.7702 73.42C86.0342 73.588 86.3502 73.672 86.7182 73.672C87.0622 73.672 87.3462 73.608 87.5702 73.48C87.7942 73.344 87.9062 73.136 87.9062 72.856C87.9062 72.624 87.7902 72.44 87.5582 72.304C87.3262 72.16 87.0462 72.048 86.7182 71.968C86.3902 71.88 86.0622 71.78 85.7342 71.668C85.4062 71.556 85.1262 71.372 84.8942 71.116C84.6622 70.86 84.5462 70.532 84.5462 70.132C84.5462 69.612 84.7462 69.184 85.1462 68.848C85.5542 68.512 86.0622 68.344 86.6702 68.344C87.1582 68.344 87.5902 68.456 87.9662 68.68C88.3502 68.896 88.6382 69.2 88.8302 69.592L87.9542 70.084C87.7382 69.572 87.3102 69.316 86.6702 69.316C86.3742 69.316 86.1222 69.388 85.9142 69.532C85.7062 69.668 85.6022 69.864 85.6022 70.12Z" fill="#0F1820"/>
</svg>
