<svg width="35" height="38" viewBox="0 0 35 38" fill="none" xmlns="http://www.w3.org/2000/svg">
<circle cx="17" cy="22" r="14" fill="#6F4DF0"/>
<g filter="url(#filter0_d_777_1233)">
<path d="M13.682 25V23.352L17.506 19.416C18.3593 18.52 18.786 17.7733 18.786 17.176C18.786 16.7387 18.6473 16.3867 18.37 16.12C18.1033 15.8533 17.7567 15.72 17.33 15.72C16.4873 15.72 15.8633 16.1573 15.458 17.032L13.602 15.944C13.954 15.176 14.4607 14.5893 15.122 14.184C15.7833 13.7787 16.5087 13.576 17.298 13.576C18.3113 13.576 19.1807 13.896 19.906 14.536C20.6313 15.1653 20.994 16.0187 20.994 17.096C20.994 18.2587 20.3807 19.4533 19.154 20.68L16.962 22.872H21.17V25H13.682Z" fill="white"/>
</g>
<defs>
<filter id="filter0_d_777_1233" x="0.602051" y="0.576172" width="33.568" height="37.4238" filterUnits="userSpaceOnUse" color-interpolation-filters="sRGB">
<feFlood flood-opacity="0" result="BackgroundImageFix"/>
<feColorMatrix in="SourceAlpha" type="matrix" values="0 0 0 0 0 0 0 0 0 0 0 0 0 0 0 0 0 0 127 0" result="hardAlpha"/>
<feOffset/>
<feGaussianBlur stdDeviation="6.5"/>
<feComposite in2="hardAlpha" operator="out"/>
<feColorMatrix type="matrix" values="0 0 0 0 0 0 0 0 0 0 0 0 0 0 0 0 0 0 0.25 0"/>
<feBlend mode="normal" in2="BackgroundImageFix" result="effect1_dropShadow_777_1233"/>
<feBlend mode="normal" in="SourceGraphic" in2="effect1_dropShadow_777_1233" result="shape"/>
</filter>
</defs>
</svg>
