<svg width="28" height="38" viewBox="0 0 28 38" fill="none" xmlns="http://www.w3.org/2000/svg">
<path d="M14.8175 0.359999C14.7144 0.246611 14.5888 0.156014 14.4486 0.0940194C14.3085 0.0320245 14.157 0 14.0037 0C13.8505 0 13.699 0.0320245 13.5588 0.0940194C13.4187 0.156014 13.2931 0.246611 13.19 0.359999L3.29339 11.3559C3.14746 11.5133 3.05075 11.7099 3.0152 11.9215C2.97964 12.1331 3.00679 12.3505 3.0933 12.5469C3.17981 12.7433 3.32189 12.9101 3.50203 13.0267C3.68218 13.1434 3.89252 13.2047 4.10711 13.2033H6.30636V20.9004C6.30636 21.192 6.42221 21.4717 6.62843 21.6779C6.83465 21.8842 7.11435 22 7.40599 22H20.6015C20.8931 22 21.1728 21.8842 21.379 21.6779C21.5852 21.4717 21.7011 21.192 21.7011 20.9004V13.2033H23.9003C24.192 13.2033 24.4717 13.0874 24.6779 12.8812C24.8841 12.675 25 12.3953 25 12.1037C25.002 11.8273 24.8999 11.5604 24.7141 11.3559L14.8175 0.359999Z" fill="#91A6A3"/>
<path d="M5.3 28H6V35H5.3V31.73H1.5V35H0.8V28H1.5V31.07H5.3V28ZM11.6869 34.37C11.1802 34.87 10.5602 35.12 9.82688 35.12C9.09354 35.12 8.47021 34.87 7.95688 34.37C7.45021 33.8633 7.19688 33.24 7.19688 32.5C7.19688 31.76 7.45021 31.14 7.95688 30.64C8.47021 30.1333 9.09354 29.88 9.82688 29.88C10.5602 29.88 11.1802 30.1333 11.6869 30.64C12.2002 31.14 12.4569 31.76 12.4569 32.5C12.4569 33.24 12.2002 33.8633 11.6869 34.37ZM8.42688 33.91C8.80688 34.29 9.27354 34.48 9.82688 34.48C10.3802 34.48 10.8469 34.29 11.2269 33.91C11.6069 33.5233 11.7969 33.0533 11.7969 32.5C11.7969 31.9467 11.6069 31.48 11.2269 31.1C10.8469 30.7133 10.3802 30.52 9.82688 30.52C9.27354 30.52 8.80688 30.7133 8.42688 31.1C8.04688 31.48 7.85688 31.9467 7.85688 32.5C7.85688 33.0533 8.04688 33.5233 8.42688 33.91ZM18.8913 29.88C19.4513 29.88 19.9013 30.06 20.2413 30.42C20.588 30.78 20.7613 31.2667 20.7613 31.88V35H20.1013V31.88C20.1013 31.4467 19.988 31.1133 19.7613 30.88C19.5413 30.64 19.248 30.52 18.8813 30.52C18.468 30.52 18.1313 30.66 17.8713 30.94C17.618 31.2133 17.4913 31.6433 17.4913 32.23V35H16.8313V31.88C16.8313 31.44 16.7247 31.1033 16.5113 30.87C16.3047 30.6367 16.0213 30.52 15.6613 30.52C15.2613 30.52 14.9213 30.66 14.6413 30.94C14.3613 31.22 14.2213 31.65 14.2213 32.23V35H13.5613V30H14.2213V30.73C14.5813 30.1633 15.0913 29.88 15.7513 29.88C16.4713 29.88 16.978 30.1833 17.2713 30.79C17.6313 30.1833 18.1713 29.88 18.8913 29.88ZM24.3479 29.88C25.0879 29.88 25.6846 30.1433 26.1379 30.67C26.5979 31.19 26.8279 31.8067 26.8279 32.52C26.8279 32.5933 26.8212 32.6967 26.8079 32.83H22.4179C22.4846 33.3367 22.6979 33.74 23.0579 34.04C23.4246 34.3333 23.8746 34.48 24.4079 34.48C24.7879 34.48 25.1146 34.4033 25.3879 34.25C25.6679 34.09 25.8779 33.8833 26.0179 33.63L26.5979 33.97C26.3779 34.3233 26.0779 34.6033 25.6979 34.81C25.3179 35.0167 24.8846 35.12 24.3979 35.12C23.6112 35.12 22.9712 34.8733 22.4779 34.38C21.9846 33.8867 21.7379 33.26 21.7379 32.5C21.7379 31.7533 21.9812 31.13 22.4679 30.63C22.9546 30.13 23.5812 29.88 24.3479 29.88ZM24.3479 30.52C23.8279 30.52 23.3912 30.6767 23.0379 30.99C22.6912 31.2967 22.4846 31.6967 22.4179 32.19H26.1479C26.0812 31.6633 25.8779 31.2533 25.5379 30.96C25.1979 30.6667 24.8012 30.52 24.3479 30.52Z" fill="#91A6A3"/>
</svg>
