<svg width="28" height="39" viewBox="0 0 28 39" fill="none" xmlns="http://www.w3.org/2000/svg">
<path d="M14.8175 1.34828C14.7144 1.23489 14.5888 1.1443 14.4486 1.0823C14.3085 1.02031 14.157 0.988281 14.0037 0.988281C13.8505 0.988281 13.699 1.02031 13.5588 1.0823C13.4187 1.1443 13.2931 1.23489 13.19 1.34828L3.29339 12.3442C3.14746 12.5016 3.05075 12.6982 3.0152 12.9098C2.97964 13.1214 3.00679 13.3388 3.0933 13.5352C3.17981 13.7316 3.32189 13.8984 3.50203 14.015C3.68218 14.1316 3.89252 14.193 4.10711 14.1915H6.30636V21.8887C6.30636 22.1803 6.42221 22.46 6.62843 22.6662C6.83465 22.8724 7.11435 22.9883 7.40599 22.9883H20.6015C20.8931 22.9883 21.1728 22.8724 21.379 22.6662C21.5852 22.46 21.7011 22.1803 21.7011 21.8887V14.1915H23.9003C24.192 14.1915 24.4717 14.0757 24.6779 13.8695C24.8841 13.6633 25 13.3836 25 13.0919C25.002 12.8156 24.8999 12.5487 24.7141 12.3442L14.8175 1.34828Z" fill="#7351F4"/>
<path d="M5.3 28.9883H6V35.9883H5.3V32.7183H1.5V35.9883H0.8V28.9883H1.5V32.0583H5.3V28.9883ZM11.6869 35.3583C11.1802 35.8583 10.5602 36.1083 9.82688 36.1083C9.09354 36.1083 8.47021 35.8583 7.95688 35.3583C7.45021 34.8516 7.19688 34.2283 7.19688 33.4883C7.19688 32.7483 7.45021 32.1283 7.95688 31.6283C8.47021 31.1216 9.09354 30.8683 9.82688 30.8683C10.5602 30.8683 11.1802 31.1216 11.6869 31.6283C12.2002 32.1283 12.4569 32.7483 12.4569 33.4883C12.4569 34.2283 12.2002 34.8516 11.6869 35.3583ZM8.42688 34.8983C8.80688 35.2783 9.27354 35.4683 9.82688 35.4683C10.3802 35.4683 10.8469 35.2783 11.2269 34.8983C11.6069 34.5116 11.7969 34.0416 11.7969 33.4883C11.7969 32.9349 11.6069 32.4683 11.2269 32.0883C10.8469 31.7016 10.3802 31.5083 9.82688 31.5083C9.27354 31.5083 8.80688 31.7016 8.42688 32.0883C8.04688 32.4683 7.85688 32.9349 7.85688 33.4883C7.85688 34.0416 8.04688 34.5116 8.42688 34.8983ZM18.8913 30.8683C19.4513 30.8683 19.9013 31.0483 20.2413 31.4083C20.588 31.7683 20.7613 32.2549 20.7613 32.8683V35.9883H20.1013V32.8683C20.1013 32.4349 19.988 32.1016 19.7613 31.8683C19.5413 31.6283 19.248 31.5083 18.8813 31.5083C18.468 31.5083 18.1313 31.6483 17.8713 31.9283C17.618 32.2016 17.4913 32.6316 17.4913 33.2183V35.9883H16.8313V32.8683C16.8313 32.4283 16.7247 32.0916 16.5113 31.8583C16.3047 31.6249 16.0213 31.5083 15.6613 31.5083C15.2613 31.5083 14.9213 31.6483 14.6413 31.9283C14.3613 32.2083 14.2213 32.6383 14.2213 33.2183V35.9883H13.5613V30.9883H14.2213V31.7183C14.5813 31.1516 15.0913 30.8683 15.7513 30.8683C16.4713 30.8683 16.978 31.1716 17.2713 31.7783C17.6313 31.1716 18.1713 30.8683 18.8913 30.8683ZM24.3479 30.8683C25.0879 30.8683 25.6846 31.1316 26.1379 31.6583C26.5979 32.1783 26.8279 32.7949 26.8279 33.5083C26.8279 33.5816 26.8212 33.6849 26.8079 33.8183H22.4179C22.4846 34.3249 22.6979 34.7283 23.0579 35.0283C23.4246 35.3216 23.8746 35.4683 24.4079 35.4683C24.7879 35.4683 25.1146 35.3916 25.3879 35.2383C25.6679 35.0783 25.8779 34.8716 26.0179 34.6183L26.5979 34.9583C26.3779 35.3116 26.0779 35.5916 25.6979 35.7983C25.3179 36.0049 24.8846 36.1083 24.3979 36.1083C23.6112 36.1083 22.9712 35.8616 22.4779 35.3683C21.9846 34.8749 21.7379 34.2483 21.7379 33.4883C21.7379 32.7416 21.9812 32.1183 22.4679 31.6183C22.9546 31.1183 23.5812 30.8683 24.3479 30.8683ZM24.3479 31.5083C23.8279 31.5083 23.3912 31.6649 23.0379 31.9783C22.6912 32.2849 22.4846 32.6849 22.4179 33.1783H26.1479C26.0812 32.6516 25.8779 32.2416 25.5379 31.9483C25.1979 31.6549 24.8012 31.5083 24.3479 31.5083Z" fill="#7351F4"/>
</svg>
