<svg width="22" height="22" viewBox="0 0 22 22" fill="none" xmlns="http://www.w3.org/2000/svg">
<path d="M11.8175 0.359999C11.7144 0.246611 11.5888 0.156014 11.4486 0.0940194C11.3085 0.0320245 11.157 0 11.0037 0C10.8505 0 10.699 0.0320245 10.5588 0.0940194C10.4187 0.156014 10.2931 0.246611 10.19 0.359999L0.293391 11.3559C0.147456 11.5133 0.0507519 11.7099 0.0151973 11.9215C-0.0203573 12.1331 0.0067922 12.3505 0.0932991 12.5469C0.179806 12.7433 0.321889 12.9101 0.502035 13.0267C0.682181 13.1434 0.892516 13.2047 1.10711 13.2033H3.30636V20.9004C3.30636 21.192 3.42221 21.4717 3.62843 21.6779C3.83465 21.8842 4.11435 22 4.40599 22H17.6015C17.8931 22 18.1728 21.8842 18.379 21.6779C18.5852 21.4717 18.7011 21.192 18.7011 20.9004V13.2033H20.9003C21.192 13.2033 21.4717 13.0874 21.6779 12.8812C21.8841 12.675 22 12.3953 22 12.1037C22.002 11.8273 21.8999 11.5604 21.7141 11.3559L11.8175 0.359999Z" fill="#91A6A3"/>
</svg>
