<svg width="35" height="36" viewBox="0 0 35 36" fill="none" xmlns="http://www.w3.org/2000/svg">
<path fill-rule="evenodd" clip-rule="evenodd" d="M27.6774 7.07715V11.8246C28.2513 11.8246 28.8196 11.9376 29.3498 12.1572C29.88 12.3768 30.3618 12.6987 30.7676 13.1045C31.1734 13.5103 31.4953 13.9921 31.7149 14.5223C31.9345 15.0525 32.0476 15.6208 32.0476 16.1947C32.0476 16.7686 31.9345 17.3368 31.7149 17.8671C31.4953 18.3973 31.1734 18.879 30.7676 19.2848C30.3618 19.6906 29.88 20.0125 29.3498 20.2321C28.8196 20.4518 28.2513 20.5648 27.6774 20.5648V24.9349C27.6774 27.3356 24.9374 28.7063 23.016 27.2657L20.0152 25.0136C18.4111 23.8109 16.5435 23.0079 14.5671 22.6712V26.8141C14.5672 27.7664 14.2231 28.6867 13.5982 29.4053C12.9733 30.1238 12.1097 30.5923 11.1666 30.7243C10.2234 30.8563 9.26439 30.6429 8.46621 30.1235C7.66802 29.6041 7.0845 28.8136 6.82322 27.8979L4.53619 19.8918C3.71317 18.9199 3.17757 17.7376 2.98958 16.478C2.80159 15.2184 2.96867 13.9313 3.47204 12.7614C3.9754 11.5915 4.7951 10.5852 5.83899 9.85567C6.88288 9.12608 8.10958 8.70213 9.38119 8.63145L13.7775 8.38673C15.9285 8.26703 18.0204 7.63847 19.8811 6.55273L23.2957 4.55996C25.2389 3.42809 27.6774 4.82799 27.6774 7.07715ZM8.20709 22.1351L9.62446 27.0981C9.69268 27.3384 9.84551 27.5458 10.0547 27.6822C10.264 27.8185 10.5155 27.8745 10.7628 27.8399C11.0101 27.8053 11.2365 27.6824 11.4003 27.4938C11.564 27.3052 11.654 27.0638 11.6537 26.8141V22.4294L9.38119 22.3027C8.98573 22.2807 8.59291 22.2247 8.20709 22.1351ZM24.764 7.07715L21.348 9.07138C19.2728 10.2811 16.9587 11.0238 14.5671 11.2477V19.7243C17.1702 20.0826 19.6481 21.098 21.7632 22.6829L24.764 24.9349V7.07715ZM11.6537 11.4225L9.54143 11.539C8.55881 11.5933 7.63222 12.014 6.94458 12.718C6.25695 13.422 5.85822 14.3583 5.82712 15.3419C5.79603 16.3255 6.13481 17.2851 6.7766 18.0311C7.41839 18.7772 8.31655 19.2555 9.29379 19.3718L9.54143 19.3936L11.6537 19.5101V11.4225ZM27.6774 14.738V17.6514C28.0487 17.651 28.4058 17.5088 28.6758 17.2539C28.9458 16.9991 29.1083 16.6507 29.13 16.2801C29.1518 15.9094 29.0312 15.5444 28.7929 15.2597C28.5546 14.975 28.2166 14.792 27.8479 14.7482L27.6774 14.738Z" fill="#CBD5E1"/>
</svg>
