<svg width="34" height="27" viewBox="0 0 34 27" fill="none" xmlns="http://www.w3.org/2000/svg">
<path d="M32.2479 4.26161C31.7819 4.0138 31.2527 3.9103 30.7277 3.96429C30.2026 4.01828 29.7056 4.22732 29.2998 4.56478L25.5432 7.67377L20.0297 1.01195C19.5788 0.467275 18.93 0.123996 18.2261 0.0575974C17.5221 -0.0088006 16.8205 0.20712 16.2757 0.657876L9.61391 6.17135L6.50492 2.41481C6.16864 2.00862 5.71948 1.71124 5.21421 1.56028C4.70895 1.40932 4.17027 1.41156 3.66627 1.5667C3.16228 1.72185 2.7156 2.02294 2.3827 2.43192C2.0498 2.84089 1.84563 3.33938 1.796 3.86438L0.470613 17.9167C0.306754 19.6765 0.847594 21.4295 1.9745 22.7911C3.1014 24.1528 4.72236 25.0118 6.48181 25.1799L25.066 26.9327C26.8259 27.0966 28.5788 26.5557 29.9405 25.4288C31.3021 24.3019 32.1611 22.681 32.3292 20.9215L33.6546 6.86922C33.7043 6.34419 33.5971 5.81622 33.3467 5.35207C33.0963 4.88793 32.714 4.50845 32.2479 4.26161Z" fill="#704EF2"/>
</svg>
