<svg width="23" height="22" viewBox="0 0 23 22" fill="none" xmlns="http://www.w3.org/2000/svg">
<path d="M3.25004 19.25C2.99032 19.25 2.77246 19.162 2.59646 18.986C2.42046 18.81 2.33277 18.5924 2.33338 18.3333V9.16667C2.33338 8.90695 2.42138 8.68909 2.59738 8.51309C2.77338 8.33709 2.99093 8.24939 3.25004 8.25H6.45838C6.7181 8.25 6.93596 8.338 7.11196 8.514C7.28796 8.69 7.37565 8.90756 7.37504 9.16667V18.3333C7.37504 18.5931 7.28704 18.8109 7.11104 18.9869C6.93504 19.1629 6.71749 19.2506 6.45838 19.25H3.25004ZM9.89588 19.25C9.63616 19.25 9.41829 19.162 9.24229 18.986C9.06629 18.81 8.9786 18.5924 8.97921 18.3333V3.66667C8.97921 3.40695 9.06721 3.18909 9.24321 3.01309C9.41921 2.83709 9.63677 2.74939 9.89588 2.75H13.1042C13.3639 2.75 13.5818 2.838 13.7578 3.014C13.9338 3.19 14.0215 3.40756 14.0209 3.66667V18.3333C14.0209 18.5931 13.9329 18.8109 13.7569 18.9869C13.5809 19.1629 13.3633 19.2506 13.1042 19.25H9.89588ZM16.5417 19.25C16.282 19.25 16.0641 19.162 15.8881 18.986C15.7121 18.81 15.6244 18.5924 15.625 18.3333V11C15.625 10.7403 15.713 10.5224 15.889 10.3464C16.065 10.1704 16.2826 10.0827 16.5417 10.0833H19.75C20.0098 10.0833 20.2276 10.1713 20.4036 10.3473C20.5796 10.5233 20.6673 10.7409 20.6667 11V18.3333C20.6667 18.5931 20.5787 18.8109 20.4027 18.9869C20.2267 19.1629 20.0092 19.2506 19.75 19.25H16.5417Z" fill="#91A6A3"/>
</svg>
