<svg width="23" height="22" viewBox="0 0 23 22" fill="none" xmlns="http://www.w3.org/2000/svg">
<path d="M3.24998 19.25C2.99026 19.25 2.7724 19.162 2.5964 18.986C2.4204 18.81 2.33271 18.5924 2.33332 18.3333V9.16667C2.33332 8.90695 2.42132 8.68909 2.59732 8.51309C2.77332 8.33709 2.99087 8.24939 3.24998 8.25H6.45832C6.71804 8.25 6.9359 8.338 7.1119 8.514C7.2879 8.69 7.37559 8.90756 7.37498 9.16667V18.3333C7.37498 18.5931 7.28698 18.8109 7.11098 18.9869C6.93498 19.1629 6.71743 19.2506 6.45832 19.25H3.24998ZM9.89582 19.25C9.63609 19.25 9.41823 19.162 9.24223 18.986C9.06623 18.81 8.97854 18.5924 8.97915 18.3333V3.66667C8.97915 3.40695 9.06715 3.18909 9.24315 3.01309C9.41915 2.83709 9.6367 2.74939 9.89582 2.75H13.1041C13.3639 2.75 13.5817 2.838 13.7577 3.014C13.9337 3.19 14.0214 3.40756 14.0208 3.66667V18.3333C14.0208 18.5931 13.9328 18.8109 13.7568 18.9869C13.5808 19.1629 13.3633 19.2506 13.1041 19.25H9.89582ZM16.5416 19.25C16.2819 19.25 16.0641 19.162 15.8881 18.986C15.7121 18.81 15.6244 18.5924 15.625 18.3333V11C15.625 10.7403 15.713 10.5224 15.889 10.3464C16.065 10.1704 16.2825 10.0827 16.5416 10.0833H19.75C20.0097 10.0833 20.2276 10.1713 20.4036 10.3473C20.5796 10.5233 20.6673 10.7409 20.6666 11V18.3333C20.6666 18.5931 20.5786 18.8109 20.4026 18.9869C20.2266 19.1629 20.0091 19.2506 19.75 19.25H16.5416Z" fill="#51B276"/>
</svg>
