<svg width="62" height="39" viewBox="0 0 62 39" fill="none" xmlns="http://www.w3.org/2000/svg">
<path d="M22.75 20.2383C22.4903 20.2383 22.2724 20.1503 22.0964 19.9743C21.9204 19.7983 21.8327 19.5807 21.8333 19.3216V10.155C21.8333 9.89523 21.9213 9.67737 22.0973 9.50137C22.2733 9.32537 22.4909 9.23767 22.75 9.23828H25.9583C26.218 9.23828 26.4359 9.32628 26.6119 9.50228C26.7879 9.67828 26.8756 9.89584 26.875 10.155V19.3216C26.875 19.5813 26.787 19.7992 26.611 19.9752C26.435 20.1512 26.2174 20.2389 25.9583 20.2383H22.75ZM29.3958 20.2383C29.1361 20.2383 28.9182 20.1503 28.7422 19.9743C28.5662 19.7983 28.4785 19.5807 28.4791 19.3216V4.65495C28.4791 4.39523 28.5671 4.17737 28.7431 4.00137C28.9191 3.82537 29.1367 3.73767 29.3958 3.73828H32.6041C32.8639 3.73828 33.0817 3.82628 33.2577 4.00228C33.4337 4.17828 33.5214 4.39584 33.5208 4.65495V19.3216C33.5208 19.5813 33.4328 19.7992 33.2568 19.9752C33.0808 20.1512 32.8633 20.2389 32.6041 20.2383H29.3958ZM36.0416 20.2383C35.7819 20.2383 35.5641 20.1503 35.3881 19.9743C35.2121 19.7983 35.1244 19.5807 35.125 19.3216V11.9883C35.125 11.7286 35.213 11.5107 35.389 11.3347C35.565 11.1587 35.7825 11.071 36.0416 11.0716H39.25C39.5097 11.0716 39.7276 11.1596 39.9036 11.3356C40.0796 11.5116 40.1673 11.7292 40.1666 11.9883V19.3216C40.1666 19.5813 40.0786 19.7992 39.9026 19.9752C39.7266 20.1512 39.5091 20.2389 39.25 20.2383H36.0416Z" fill="#7351F4"/>
<path d="M2 35.3283H5.2V35.9883H1.3V28.9883H2V35.3283ZM8.15844 30.8683C8.89844 30.8683 9.4951 31.1316 9.94844 31.6583C10.4084 32.1783 10.6384 32.7949 10.6384 33.5083C10.6384 33.5816 10.6318 33.6849 10.6184 33.8183H6.22844C6.2951 34.3249 6.50844 34.7283 6.86844 35.0283C7.2351 35.3216 7.6851 35.4683 8.21844 35.4683C8.59844 35.4683 8.9251 35.3916 9.19844 35.2383C9.47844 35.0783 9.68844 34.8716 9.82844 34.6183L10.4084 34.9583C10.1884 35.3116 9.88844 35.5916 9.50844 35.7983C9.12844 36.0049 8.6951 36.1083 8.20844 36.1083C7.42177 36.1083 6.78177 35.8616 6.28844 35.3683C5.7951 34.8749 5.54844 34.2483 5.54844 33.4883C5.54844 32.7416 5.79177 32.1183 6.27844 31.6183C6.7651 31.1183 7.39177 30.8683 8.15844 30.8683ZM8.15844 31.5083C7.63844 31.5083 7.20177 31.6649 6.84844 31.9783C6.50177 32.2849 6.2951 32.6849 6.22844 33.1783H9.95844C9.89177 32.6516 9.68844 32.2416 9.34844 31.9483C9.00844 31.6549 8.61177 31.5083 8.15844 31.5083ZM15.9883 30.9883H16.6483V35.9883H15.9883V35.0083C15.5283 35.7416 14.8549 36.1083 13.9683 36.1083C13.2549 36.1083 12.6449 35.8549 12.1383 35.3483C11.6383 34.8416 11.3883 34.2216 11.3883 33.4883C11.3883 32.7549 11.6383 32.1349 12.1383 31.6283C12.6449 31.1216 13.2549 30.8683 13.9683 30.8683C14.8549 30.8683 15.5283 31.2349 15.9883 31.9683V30.9883ZM12.6183 34.8983C12.9983 35.2783 13.4649 35.4683 14.0183 35.4683C14.5716 35.4683 15.0383 35.2783 15.4183 34.8983C15.7983 34.5116 15.9883 34.0416 15.9883 33.4883C15.9883 32.9349 15.7983 32.4683 15.4183 32.0883C15.0383 31.7016 14.5716 31.5083 14.0183 31.5083C13.4649 31.5083 12.9983 31.7016 12.6183 32.0883C12.2383 32.4683 12.0483 32.9349 12.0483 33.4883C12.0483 34.0416 12.2383 34.5116 12.6183 34.8983ZM22.3457 28.9883H23.0057V35.9883H22.3457V35.0083C21.8857 35.7416 21.2124 36.1083 20.3257 36.1083C19.6124 36.1083 19.0024 35.8549 18.4957 35.3483C17.9957 34.8416 17.7457 34.2216 17.7457 33.4883C17.7457 32.7549 17.9957 32.1349 18.4957 31.6283C19.0024 31.1216 19.6124 30.8683 20.3257 30.8683C21.2124 30.8683 21.8857 31.2349 22.3457 31.9683V28.9883ZM18.9757 34.8983C19.3557 35.2783 19.8224 35.4683 20.3757 35.4683C20.929 35.4683 21.3957 35.2783 21.7757 34.8983C22.1557 34.5116 22.3457 34.0416 22.3457 33.4883C22.3457 32.9349 22.1557 32.4683 21.7757 32.0883C21.3957 31.7016 20.929 31.5083 20.3757 31.5083C19.8224 31.5083 19.3557 31.7016 18.9757 32.0883C18.5957 32.4683 18.4057 32.9349 18.4057 33.4883C18.4057 34.0416 18.5957 34.5116 18.9757 34.8983ZM26.7131 30.8683C27.4531 30.8683 28.0498 31.1316 28.5031 31.6583C28.9631 32.1783 29.1931 32.7949 29.1931 33.5083C29.1931 33.5816 29.1865 33.6849 29.1731 33.8183H24.7831C24.8498 34.3249 25.0631 34.7283 25.4231 35.0283C25.7898 35.3216 26.2398 35.4683 26.7731 35.4683C27.1531 35.4683 27.4798 35.3916 27.7531 35.2383C28.0331 35.0783 28.2431 34.8716 28.3831 34.6183L28.9631 34.9583C28.7431 35.3116 28.4431 35.5916 28.0631 35.7983C27.6831 36.0049 27.2498 36.1083 26.7631 36.1083C25.9765 36.1083 25.3365 35.8616 24.8431 35.3683C24.3498 34.8749 24.1031 34.2483 24.1031 33.4883C24.1031 32.7416 24.3465 32.1183 24.8331 31.6183C25.3198 31.1183 25.9465 30.8683 26.7131 30.8683ZM26.7131 31.5083C26.1931 31.5083 25.7565 31.6649 25.4031 31.9783C25.0565 32.2849 24.8498 32.6849 24.7831 33.1783H28.5131C28.4465 32.6516 28.2431 32.2416 27.9031 31.9483C27.5631 31.6549 27.1665 31.5083 26.7131 31.5083ZM30.903 31.8183C31.2096 31.2116 31.7363 30.9083 32.483 30.9083V31.5483C32.0296 31.5483 31.653 31.6816 31.353 31.9483C31.053 32.2149 30.903 32.6349 30.903 33.2083V35.9883H30.243V30.9883H30.903V31.8183ZM36.0675 30.8683C36.7808 30.8683 37.3875 31.1216 37.8875 31.6283C38.3942 32.1349 38.6475 32.7549 38.6475 33.4883C38.6475 34.2216 38.3942 34.8416 37.8875 35.3483C37.3875 35.8549 36.7808 36.1083 36.0675 36.1083C35.1808 36.1083 34.5075 35.7416 34.0475 35.0083V35.9883H33.3875V28.9883H34.0475V31.9683C34.5075 31.2349 35.1808 30.8683 36.0675 30.8683ZM34.6175 34.8983C34.9975 35.2783 35.4642 35.4683 36.0175 35.4683C36.5708 35.4683 37.0375 35.2783 37.4175 34.8983C37.7975 34.5116 37.9875 34.0416 37.9875 33.4883C37.9875 32.9349 37.7975 32.4683 37.4175 32.0883C37.0375 31.7016 36.5708 31.5083 36.0175 31.5083C35.4642 31.5083 34.9975 31.7016 34.6175 32.0883C34.2375 32.4683 34.0475 32.9349 34.0475 33.4883C34.0475 34.0416 34.2375 34.5116 34.6175 34.8983ZM43.9349 35.3583C43.4283 35.8583 42.8083 36.1083 42.0749 36.1083C41.3416 36.1083 40.7183 35.8583 40.2049 35.3583C39.6983 34.8516 39.4449 34.2283 39.4449 33.4883C39.4449 32.7483 39.6983 32.1283 40.2049 31.6283C40.7183 31.1216 41.3416 30.8683 42.0749 30.8683C42.8083 30.8683 43.4283 31.1216 43.9349 31.6283C44.4483 32.1283 44.7049 32.7483 44.7049 33.4883C44.7049 34.2283 44.4483 34.8516 43.9349 35.3583ZM40.6749 34.8983C41.0549 35.2783 41.5216 35.4683 42.0749 35.4683C42.6283 35.4683 43.0949 35.2783 43.4749 34.8983C43.8549 34.5116 44.0449 34.0416 44.0449 33.4883C44.0449 32.9349 43.8549 32.4683 43.4749 32.0883C43.0949 31.7016 42.6283 31.5083 42.0749 31.5083C41.5216 31.5083 41.0549 31.7016 40.6749 32.0883C40.2949 32.4683 40.1049 32.9349 40.1049 33.4883C40.1049 34.0416 40.2949 34.5116 40.6749 34.8983ZM50.1094 30.9883H50.7694V35.9883H50.1094V35.0083C49.6494 35.7416 48.976 36.1083 48.0894 36.1083C47.376 36.1083 46.766 35.8549 46.2594 35.3483C45.7594 34.8416 45.5094 34.2216 45.5094 33.4883C45.5094 32.7549 45.7594 32.1349 46.2594 31.6283C46.766 31.1216 47.376 30.8683 48.0894 30.8683C48.976 30.8683 49.6494 31.2349 50.1094 31.9683V30.9883ZM46.7394 34.8983C47.1194 35.2783 47.586 35.4683 48.1394 35.4683C48.6927 35.4683 49.1594 35.2783 49.5394 34.8983C49.9194 34.5116 50.1094 34.0416 50.1094 33.4883C50.1094 32.9349 49.9194 32.4683 49.5394 32.0883C49.1594 31.7016 48.6927 31.5083 48.1394 31.5083C47.586 31.5083 47.1194 31.7016 46.7394 32.0883C46.3594 32.4683 46.1694 32.9349 46.1694 33.4883C46.1694 34.0416 46.3594 34.5116 46.7394 34.8983ZM52.8268 31.8183C53.1335 31.2116 53.6601 30.9083 54.4068 30.9083V31.5483C53.9535 31.5483 53.5768 31.6816 53.2768 31.9483C52.9768 32.2149 52.8268 32.6349 52.8268 33.2083V35.9883H52.1668V30.9883H52.8268V31.8183ZM59.3086 28.9883H59.9686V35.9883H59.3086V35.0083C58.8486 35.7416 58.1753 36.1083 57.2886 36.1083C56.5753 36.1083 55.9653 35.8549 55.4586 35.3483C54.9586 34.8416 54.7086 34.2216 54.7086 33.4883C54.7086 32.7549 54.9586 32.1349 55.4586 31.6283C55.9653 31.1216 56.5753 30.8683 57.2886 30.8683C58.1753 30.8683 58.8486 31.2349 59.3086 31.9683V28.9883ZM55.9386 34.8983C56.3186 35.2783 56.7853 35.4683 57.3386 35.4683C57.8919 35.4683 58.3586 35.2783 58.7386 34.8983C59.1186 34.5116 59.3086 34.0416 59.3086 33.4883C59.3086 32.9349 59.1186 32.4683 58.7386 32.0883C58.3586 31.7016 57.8919 31.5083 57.3386 31.5083C56.7853 31.5083 56.3186 31.7016 55.9386 32.0883C55.5586 32.4683 55.3686 32.9349 55.3686 33.4883C55.3686 34.0416 55.5586 34.5116 55.9386 34.8983Z" fill="#7351F4"/>
</svg>
