<svg width="23" height="20" viewBox="0 0 23 20" fill="none" xmlns="http://www.w3.org/2000/svg">
<path d="M6.17712 9.19768H14.8352V1.40536C14.8352 1.17574 14.744 0.955513 14.5817 0.793142C14.4193 0.63077 14.1991 0.539551 13.9694 0.539551H0.982238C0.75261 0.539551 0.532387 0.63077 0.370015 0.793142C0.207644 0.955513 0.116425 1.17574 0.116425 1.40536V18.7216C0.116425 18.9513 0.207644 19.1715 0.370015 19.3338C0.532387 19.4962 0.75261 19.5874 0.982238 19.5874H13.9694C14.1991 19.5874 14.4193 19.4962 14.5817 19.3338C14.744 19.1715 14.8352 18.9513 14.8352 18.7216V10.9293H6.17712V9.19768ZM22.3738 9.45147L17.4327 4.50984L16.2081 5.73443L19.6714 9.19768H14.8352V10.9293H19.6714L16.2081 14.3926L17.4327 15.6171L22.3738 10.6755C22.536 10.5132 22.6272 10.293 22.6272 10.0635C22.6272 9.83397 22.536 9.61383 22.3738 9.45147Z" fill="#CBD5E1"/>
</svg>
