<svg width="26" height="39" viewBox="0 0 26 39" fill="none" xmlns="http://www.w3.org/2000/svg">
<g clip-path="url(#clip0_830_4762)">
<path d="M24.3437 3.73828H4.40625C3.8367 3.73828 3.375 4.19998 3.375 4.76953V5.11328H1.65625C1.0867 5.11328 0.625 5.57498 0.625 6.14453V17.832C0.625 19.161 1.70231 20.2383 3.03125 20.2383H23.3125C24.4516 20.2383 25.375 19.3149 25.375 18.1758V4.76953C25.375 4.19998 24.9133 3.73828 24.3437 3.73828ZM3.03125 18.1758C2.94008 18.1758 2.85265 18.1396 2.78818 18.0751C2.72372 18.0106 2.6875 17.9232 2.6875 17.832V7.17578H3.375V17.832C3.375 17.9232 3.33878 18.0106 3.27432 18.0751C3.20985 18.1396 3.12242 18.1758 3.03125 18.1758ZM13.1719 17.4883H6.64062C6.35587 17.4883 6.125 17.2574 6.125 16.9727V16.6289C6.125 16.3442 6.35587 16.1133 6.64062 16.1133H13.1719C13.4566 16.1133 13.6875 16.3442 13.6875 16.6289V16.9727C13.6875 17.2574 13.4566 17.4883 13.1719 17.4883ZM22.1094 17.4883H15.5781C15.2934 17.4883 15.0625 17.2574 15.0625 16.9727V16.6289C15.0625 16.3442 15.2934 16.1133 15.5781 16.1133H22.1094C22.3941 16.1133 22.625 16.3442 22.625 16.6289V16.9727C22.625 17.2574 22.3941 17.4883 22.1094 17.4883ZM13.1719 13.3633H6.64062C6.35587 13.3633 6.125 13.1324 6.125 12.8477V12.5039C6.125 12.2192 6.35587 11.9883 6.64062 11.9883H13.1719C13.4566 11.9883 13.6875 12.2192 13.6875 12.5039V12.8477C13.6875 13.1324 13.4566 13.3633 13.1719 13.3633ZM22.1094 13.3633H15.5781C15.2934 13.3633 15.0625 13.1324 15.0625 12.8477V12.5039C15.0625 12.2192 15.2934 11.9883 15.5781 11.9883H22.1094C22.3941 11.9883 22.625 12.2192 22.625 12.5039V12.8477C22.625 13.1324 22.3941 13.3633 22.1094 13.3633ZM22.1094 9.23828H6.64062C6.35587 9.23828 6.125 9.00741 6.125 8.72266V7.00391C6.125 6.71915 6.35587 6.48828 6.64062 6.48828H22.1094C22.3941 6.48828 22.625 6.71915 22.625 7.00391V8.72266C22.625 9.00741 22.3941 9.23828 22.1094 9.23828Z" fill="#7351F4"/>
</g>
<path d="M6.1125 28.9883H6.8125V35.9883H6.2125L2.3125 30.2883V35.9883H1.6125V28.9883H2.2125L6.1125 34.6883V28.9883ZM10.6194 30.8683C11.3594 30.8683 11.956 31.1316 12.4094 31.6583C12.8694 32.1783 13.0994 32.7949 13.0994 33.5083C13.0994 33.5816 13.0927 33.6849 13.0794 33.8183H8.68938C8.75604 34.3249 8.96938 34.7283 9.32938 35.0283C9.69604 35.3216 10.146 35.4683 10.6794 35.4683C11.0594 35.4683 11.386 35.3916 11.6594 35.2383C11.9394 35.0783 12.1494 34.8716 12.2894 34.6183L12.8694 34.9583C12.6494 35.3116 12.3494 35.5916 11.9694 35.7983C11.5894 36.0049 11.156 36.1083 10.6694 36.1083C9.88271 36.1083 9.24271 35.8616 8.74938 35.3683C8.25604 34.8749 8.00938 34.2483 8.00938 33.4883C8.00938 32.7416 8.25271 32.1183 8.73938 31.6183C9.22604 31.1183 9.85271 30.8683 10.6194 30.8683ZM10.6194 31.5083C10.0994 31.5083 9.66271 31.6649 9.30938 31.9783C8.96271 32.2849 8.75604 32.6849 8.68938 33.1783H12.4194C12.3527 32.6516 12.1494 32.2416 11.8094 31.9483C11.4694 31.6549 11.0727 31.5083 10.6194 31.5083ZM19.9739 30.9883H20.6539L19.1139 35.9883H18.3939L17.1039 31.9583L15.8139 35.9883H15.0939L13.5539 30.9883H14.2339L15.4639 35.1383L16.7739 30.9883H17.4339L18.7439 35.1383L19.9739 30.9883ZM21.8665 32.2983C21.8665 32.5249 21.9665 32.7049 22.1665 32.8383C22.3665 32.9716 22.6098 33.0749 22.8965 33.1483C23.1832 33.2216 23.4698 33.3049 23.7565 33.3983C24.0432 33.4849 24.2865 33.6349 24.4865 33.8483C24.6865 34.0549 24.7865 34.3283 24.7865 34.6683C24.7865 35.0949 24.6165 35.4416 24.2765 35.7083C23.9432 35.9749 23.5098 36.1083 22.9765 36.1083C22.4965 36.1083 22.0865 36.0016 21.7465 35.7883C21.4132 35.5749 21.1798 35.2983 21.0465 34.9583L21.6065 34.6283C21.6998 34.8883 21.8665 35.0949 22.1065 35.2483C22.3532 35.3949 22.6432 35.4683 22.9765 35.4683C23.3032 35.4683 23.5765 35.4049 23.7965 35.2783C24.0165 35.1449 24.1265 34.9416 24.1265 34.6683C24.1265 34.4416 24.0265 34.2616 23.8265 34.1283C23.6265 33.9949 23.3832 33.8916 23.0965 33.8183C22.8098 33.7449 22.5232 33.6649 22.2365 33.5783C21.9498 33.4849 21.7065 33.3349 21.5065 33.1283C21.3065 32.9149 21.2065 32.6383 21.2065 32.2983C21.2065 31.8916 21.3665 31.5516 21.6865 31.2783C22.0132 31.0049 22.4232 30.8683 22.9165 30.8683C23.3232 30.8683 23.6798 30.9616 23.9865 31.1483C24.2932 31.3283 24.5198 31.5749 24.6665 31.8883L24.1165 32.2083C23.9232 31.7416 23.5232 31.5083 22.9165 31.5083C22.6298 31.5083 22.3832 31.5783 22.1765 31.7183C21.9698 31.8516 21.8665 32.0449 21.8665 32.2983Z" fill="#7351F4"/>
<defs>
<clipPath id="clip0_830_4762">
<rect width="24.75" height="22" fill="white" transform="translate(0.625 0.988281)"/>
</clipPath>
</defs>
</svg>
