<svg width="25" height="18" viewBox="0 0 25 18" fill="none" xmlns="http://www.w3.org/2000/svg">
<path d="M23.8437 0.75H3.90625C3.3367 0.75 2.875 1.2117 2.875 1.78125V2.125H1.15625C0.586699 2.125 0.125 2.5867 0.125 3.15625V14.8438C0.125 16.1727 1.20231 17.25 2.53125 17.25H22.8125C23.9516 17.25 24.875 16.3266 24.875 15.1875V1.78125C24.875 1.2117 24.4133 0.75 23.8437 0.75ZM2.53125 15.1875C2.44008 15.1875 2.35265 15.1513 2.28818 15.0868C2.22372 15.0224 2.1875 14.9349 2.1875 14.8438V4.1875H2.875V14.8438C2.875 14.9349 2.83878 15.0224 2.77432 15.0868C2.70985 15.1513 2.62242 15.1875 2.53125 15.1875ZM12.6719 14.5H6.14062C5.85587 14.5 5.625 14.2691 5.625 13.9844V13.6406C5.625 13.3559 5.85587 13.125 6.14062 13.125H12.6719C12.9566 13.125 13.1875 13.3559 13.1875 13.6406V13.9844C13.1875 14.2691 12.9566 14.5 12.6719 14.5ZM21.6094 14.5H15.0781C14.7934 14.5 14.5625 14.2691 14.5625 13.9844V13.6406C14.5625 13.3559 14.7934 13.125 15.0781 13.125H21.6094C21.8941 13.125 22.125 13.3559 22.125 13.6406V13.9844C22.125 14.2691 21.8941 14.5 21.6094 14.5ZM12.6719 10.375H6.14062C5.85587 10.375 5.625 10.1441 5.625 9.85938V9.51562C5.625 9.23087 5.85587 9 6.14062 9H12.6719C12.9566 9 13.1875 9.23087 13.1875 9.51562V9.85938C13.1875 10.1441 12.9566 10.375 12.6719 10.375ZM21.6094 10.375H15.0781C14.7934 10.375 14.5625 10.1441 14.5625 9.85938V9.51562C14.5625 9.23087 14.7934 9 15.0781 9H21.6094C21.8941 9 22.125 9.23087 22.125 9.51562V9.85938C22.125 10.1441 21.8941 10.375 21.6094 10.375ZM21.6094 6.25H6.14062C5.85587 6.25 5.625 6.01913 5.625 5.73438V4.01562C5.625 3.73087 5.85587 3.5 6.14062 3.5H21.6094C21.8941 3.5 22.125 3.73087 22.125 4.01562V5.73438C22.125 6.01913 21.8941 6.25 21.6094 6.25Z" fill="#51B276"/>
</svg>
