<svg width="25" height="22" viewBox="0 0 25 22" fill="none" xmlns="http://www.w3.org/2000/svg">
<g clip-path="url(#clip0_123_926)">
<path d="M23.8437 2.75H3.90625C3.3367 2.75 2.875 3.2117 2.875 3.78125V4.125H1.15625C0.586699 4.125 0.125 4.5867 0.125 5.15625V16.8438C0.125 18.1727 1.20231 19.25 2.53125 19.25H22.8125C23.9516 19.25 24.875 18.3266 24.875 17.1875V3.78125C24.875 3.2117 24.4133 2.75 23.8437 2.75ZM2.53125 17.1875C2.44008 17.1875 2.35265 17.1513 2.28818 17.0868C2.22372 17.0224 2.1875 16.9349 2.1875 16.8438V6.1875H2.875V16.8438C2.875 16.9349 2.83878 17.0224 2.77432 17.0868C2.70985 17.1513 2.62242 17.1875 2.53125 17.1875ZM12.6719 16.5H6.14062C5.85587 16.5 5.625 16.2691 5.625 15.9844V15.6406C5.625 15.3559 5.85587 15.125 6.14062 15.125H12.6719C12.9566 15.125 13.1875 15.3559 13.1875 15.6406V15.9844C13.1875 16.2691 12.9566 16.5 12.6719 16.5ZM21.6094 16.5H15.0781C14.7934 16.5 14.5625 16.2691 14.5625 15.9844V15.6406C14.5625 15.3559 14.7934 15.125 15.0781 15.125H21.6094C21.8941 15.125 22.125 15.3559 22.125 15.6406V15.9844C22.125 16.2691 21.8941 16.5 21.6094 16.5ZM12.6719 12.375H6.14062C5.85587 12.375 5.625 12.1441 5.625 11.8594V11.5156C5.625 11.2309 5.85587 11 6.14062 11H12.6719C12.9566 11 13.1875 11.2309 13.1875 11.5156V11.8594C13.1875 12.1441 12.9566 12.375 12.6719 12.375ZM21.6094 12.375H15.0781C14.7934 12.375 14.5625 12.1441 14.5625 11.8594V11.5156C14.5625 11.2309 14.7934 11 15.0781 11H21.6094C21.8941 11 22.125 11.2309 22.125 11.5156V11.8594C22.125 12.1441 21.8941 12.375 21.6094 12.375ZM21.6094 8.25H6.14062C5.85587 8.25 5.625 8.01913 5.625 7.73438V6.01562C5.625 5.73087 5.85587 5.5 6.14062 5.5H21.6094C21.8941 5.5 22.125 5.73087 22.125 6.01562V7.73438C22.125 8.01913 21.8941 8.25 21.6094 8.25Z" fill="#91A6A3"/>
</g>
<defs>
<clipPath id="clip0_123_926">
<rect width="24.75" height="22" fill="white" transform="translate(0.125)"/>
</clipPath>
</defs>
</svg>
