<svg width="25" height="38" viewBox="0 0 25 38" fill="none" xmlns="http://www.w3.org/2000/svg">
<g clip-path="url(#clip0_123_925)">
<path d="M23.8437 2.75H3.90625C3.3367 2.75 2.875 3.2117 2.875 3.78125V4.125H1.15625C0.586699 4.125 0.125 4.5867 0.125 5.15625V16.8438C0.125 18.1727 1.20231 19.25 2.53125 19.25H22.8125C23.9516 19.25 24.875 18.3266 24.875 17.1875V3.78125C24.875 3.2117 24.4133 2.75 23.8437 2.75ZM2.53125 17.1875C2.44008 17.1875 2.35265 17.1513 2.28818 17.0868C2.22372 17.0224 2.1875 16.9349 2.1875 16.8438V6.1875H2.875V16.8438C2.875 16.9349 2.83878 17.0224 2.77432 17.0868C2.70985 17.1513 2.62242 17.1875 2.53125 17.1875ZM12.6719 16.5H6.14062C5.85587 16.5 5.625 16.2691 5.625 15.9844V15.6406C5.625 15.3559 5.85587 15.125 6.14062 15.125H12.6719C12.9566 15.125 13.1875 15.3559 13.1875 15.6406V15.9844C13.1875 16.2691 12.9566 16.5 12.6719 16.5ZM21.6094 16.5H15.0781C14.7934 16.5 14.5625 16.2691 14.5625 15.9844V15.6406C14.5625 15.3559 14.7934 15.125 15.0781 15.125H21.6094C21.8941 15.125 22.125 15.3559 22.125 15.6406V15.9844C22.125 16.2691 21.8941 16.5 21.6094 16.5ZM12.6719 12.375H6.14062C5.85587 12.375 5.625 12.1441 5.625 11.8594V11.5156C5.625 11.2309 5.85587 11 6.14062 11H12.6719C12.9566 11 13.1875 11.2309 13.1875 11.5156V11.8594C13.1875 12.1441 12.9566 12.375 12.6719 12.375ZM21.6094 12.375H15.0781C14.7934 12.375 14.5625 12.1441 14.5625 11.8594V11.5156C14.5625 11.2309 14.7934 11 15.0781 11H21.6094C21.8941 11 22.125 11.2309 22.125 11.5156V11.8594C22.125 12.1441 21.8941 12.375 21.6094 12.375ZM21.6094 8.25H6.14062C5.85587 8.25 5.625 8.01913 5.625 7.73438V6.01562C5.625 5.73087 5.85587 5.5 6.14062 5.5H21.6094C21.8941 5.5 22.125 5.73087 22.125 6.01562V7.73438C22.125 8.01913 21.8941 8.25 21.6094 8.25Z" fill="#91A6A3"/>
</g>
<path d="M5.6125 28H6.3125V35H5.7125L1.8125 29.3V35H1.1125V28H1.7125L5.6125 33.7V28ZM10.1194 29.88C10.8594 29.88 11.456 30.1433 11.9094 30.67C12.3694 31.19 12.5994 31.8067 12.5994 32.52C12.5994 32.5933 12.5927 32.6967 12.5794 32.83H8.18938C8.25604 33.3367 8.46938 33.74 8.82938 34.04C9.19604 34.3333 9.64604 34.48 10.1794 34.48C10.5594 34.48 10.886 34.4033 11.1594 34.25C11.4394 34.09 11.6494 33.8833 11.7894 33.63L12.3694 33.97C12.1494 34.3233 11.8494 34.6033 11.4694 34.81C11.0894 35.0167 10.656 35.12 10.1694 35.12C9.38271 35.12 8.74271 34.8733 8.24938 34.38C7.75604 33.8867 7.50938 33.26 7.50938 32.5C7.50938 31.7533 7.75271 31.13 8.23938 30.63C8.72604 30.13 9.35271 29.88 10.1194 29.88ZM10.1194 30.52C9.59938 30.52 9.16271 30.6767 8.80938 30.99C8.46271 31.2967 8.25604 31.6967 8.18938 32.19H11.9194C11.8527 31.6633 11.6494 31.2533 11.3094 30.96C10.9694 30.6667 10.5727 30.52 10.1194 30.52ZM19.4739 30H20.1539L18.6139 35H17.8939L16.6039 30.97L15.3139 35H14.5939L13.0539 30H13.7339L14.9639 34.15L16.2739 30H16.9339L18.2439 34.15L19.4739 30ZM21.3665 31.31C21.3665 31.5367 21.4665 31.7167 21.6665 31.85C21.8665 31.9833 22.1098 32.0867 22.3965 32.16C22.6832 32.2333 22.9698 32.3167 23.2565 32.41C23.5432 32.4967 23.7865 32.6467 23.9865 32.86C24.1865 33.0667 24.2865 33.34 24.2865 33.68C24.2865 34.1067 24.1165 34.4533 23.7765 34.72C23.4432 34.9867 23.0098 35.12 22.4765 35.12C21.9965 35.12 21.5865 35.0133 21.2465 34.8C20.9132 34.5867 20.6798 34.31 20.5465 33.97L21.1065 33.64C21.1998 33.9 21.3665 34.1067 21.6065 34.26C21.8532 34.4067 22.1432 34.48 22.4765 34.48C22.8032 34.48 23.0765 34.4167 23.2965 34.29C23.5165 34.1567 23.6265 33.9533 23.6265 33.68C23.6265 33.4533 23.5265 33.2733 23.3265 33.14C23.1265 33.0067 22.8832 32.9033 22.5965 32.83C22.3098 32.7567 22.0232 32.6767 21.7365 32.59C21.4498 32.4967 21.2065 32.3467 21.0065 32.14C20.8065 31.9267 20.7065 31.65 20.7065 31.31C20.7065 30.9033 20.8665 30.5633 21.1865 30.29C21.5132 30.0167 21.9232 29.88 22.4165 29.88C22.8232 29.88 23.1798 29.9733 23.4865 30.16C23.7932 30.34 24.0198 30.5867 24.1665 30.9L23.6165 31.22C23.4232 30.7533 23.0232 30.52 22.4165 30.52C22.1298 30.52 21.8832 30.59 21.6765 30.73C21.4698 30.8633 21.3665 31.0567 21.3665 31.31Z" fill="#91A6A3"/>
<defs>
<clipPath id="clip0_123_925">
<rect width="24.75" height="22" fill="white" transform="translate(0.125)"/>
</clipPath>
</defs>
</svg>
