<svg width="36" height="36" viewBox="0 0 36 36" fill="none" xmlns="http://www.w3.org/2000/svg">
<circle cx="18" cy="18" r="18" fill="white" fill-opacity="0.1"/>
<circle cx="18" cy="18" r="17.5714" stroke="#F5F5F5" stroke-opacity="0.2" stroke-width="0.857143"/>
<path d="M21.7954 14.9524C21.7954 13.903 21.3785 12.8967 20.6365 12.1547C19.8945 11.4127 18.8882 10.9958 17.8388 10.9958C16.7895 10.9958 15.7831 11.4127 15.0412 12.1547C14.2992 12.8967 13.8823 13.903 13.8823 14.9524C13.8823 19.5683 11.9041 20.8872 11.9041 20.8872H23.7736C23.7736 20.8872 21.7954 19.5683 21.7954 14.9524Z" stroke="#F5F5F5" stroke-width="1.31884" stroke-linecap="round" stroke-linejoin="round"/>
<path d="M18.9793 23.5249C18.8634 23.7248 18.697 23.8907 18.4968 24.006C18.2966 24.1213 18.0696 24.182 17.8386 24.182C17.6075 24.182 17.3805 24.1213 17.1803 24.006C16.9801 23.8907 16.8137 23.7248 16.6978 23.5249" stroke="#F5F5F5" stroke-width="1.31884" stroke-linecap="round" stroke-linejoin="round"/>
<path d="M33.9522 5.06438C33.9522 6.95336 32.4795 8.46346 30.6885 8.46346C28.8974 8.46346 27.4247 6.95336 27.4247 5.06438C27.4247 3.17541 28.8974 1.66531 30.6885 1.66531C32.4795 1.66531 33.9522 3.17541 33.9522 5.06438Z" fill="#75FB4C" stroke="#F5F5F5" stroke-width="0.667036"/>
</svg>
