<svg width="38" height="38" viewBox="0 0 38 38" fill="none" xmlns="http://www.w3.org/2000/svg">
<g clip-path="url(#clip0_123_921)">
<path d="M17.9 13.2H9.1V19.8C9.1 20.3835 9.33179 20.9431 9.74437 21.3556C10.1569 21.7682 10.7165 22 11.3 22H26.7C27.2835 22 27.8431 21.7682 28.2556 21.3556C28.6682 20.9431 28.9 20.3835 28.9 19.8V13.2H20.1V15.4H17.9V13.2ZM17.9 12.1H8V5.5C8 4.29 8.99 3.3 10.2 3.3H14.6V2.2C14.6 1.61652 14.8318 1.05695 15.2444 0.644365C15.6569 0.231785 16.2165 0 16.8 0L21.2 0C21.7835 0 22.3431 0.231785 22.7556 0.644365C23.1682 1.05695 23.4 1.61652 23.4 2.2V3.3H27.8C28.3835 3.3 28.9431 3.53179 29.3556 3.94437C29.7682 4.35695 30 4.91652 30 5.5V12.1H20.1V9.9H17.9V12.1ZM21.2 3.3V2.2H16.8V3.3H21.2Z" fill="#91A6A3"/>
</g>
<path d="M3.3 28C3.92667 28 4.45 28.21 4.87 28.63C5.29 29.05 5.5 29.5733 5.5 30.2C5.5 30.8267 5.29 31.35 4.87 31.77C4.45 32.19 3.92667 32.4 3.3 32.4H1.5V35H0.8V28H3.3ZM3.3 31.74C3.73333 31.74 4.09 31.5967 4.37 31.31C4.65667 31.0167 4.8 30.6467 4.8 30.2C4.8 29.7533 4.65667 29.3867 4.37 29.1C4.09 28.8067 3.73333 28.66 3.3 28.66H1.5V31.74H3.3ZM10.388 34.37C9.88138 34.87 9.26138 35.12 8.52805 35.12C7.79471 35.12 7.17138 34.87 6.65805 34.37C6.15138 33.8633 5.89805 33.24 5.89805 32.5C5.89805 31.76 6.15138 31.14 6.65805 30.64C7.17138 30.1333 7.79471 29.88 8.52805 29.88C9.26138 29.88 9.88138 30.1333 10.388 30.64C10.9014 31.14 11.158 31.76 11.158 32.5C11.158 33.24 10.9014 33.8633 10.388 34.37ZM7.12805 33.91C7.50805 34.29 7.97471 34.48 8.52805 34.48C9.08138 34.48 9.54805 34.29 9.92805 33.91C10.308 33.5233 10.498 33.0533 10.498 32.5C10.498 31.9467 10.308 31.48 9.92805 31.1C9.54805 30.7133 9.08138 30.52 8.52805 30.52C7.97471 30.52 7.50805 30.7133 7.12805 31.1C6.74805 31.48 6.55805 31.9467 6.55805 32.5C6.55805 33.0533 6.74805 33.5233 7.12805 33.91ZM12.9225 30.83C13.2292 30.2233 13.7558 29.92 14.5025 29.92V30.56C14.0492 30.56 13.6725 30.6933 13.3725 30.96C13.0725 31.2267 12.9225 31.6467 12.9225 32.22V35H12.2625V30H12.9225V30.83ZM18.1547 30.64H16.7147V33.67C16.7147 33.9433 16.768 34.14 16.8747 34.26C16.9814 34.3733 17.1414 34.4333 17.3547 34.44C17.568 34.44 17.8347 34.4333 18.1547 34.42V35C17.4547 35.1067 16.928 35.0567 16.5747 34.85C16.228 34.6433 16.0547 34.25 16.0547 33.67V30.64H15.0047V30H16.0547V28.8L16.7147 28.6V30H18.1547V30.64ZM21.5008 28.52C21.0141 28.48 20.6508 28.5633 20.4108 28.77C20.1774 28.9767 20.0608 29.32 20.0608 29.8V30H21.5008V30.64H20.0608V35H19.4008V30.64H18.5508V30H19.4008V29.8C19.4008 29.1467 19.5808 28.6533 19.9408 28.32C20.3074 27.98 20.8274 27.8333 21.5008 27.88V28.52ZM26.0912 34.37C25.5845 34.87 24.9645 35.12 24.2312 35.12C23.4978 35.12 22.8745 34.87 22.3612 34.37C21.8545 33.8633 21.6012 33.24 21.6012 32.5C21.6012 31.76 21.8545 31.14 22.3612 30.64C22.8745 30.1333 23.4978 29.88 24.2312 29.88C24.9645 29.88 25.5845 30.1333 26.0912 30.64C26.6045 31.14 26.8612 31.76 26.8612 32.5C26.8612 33.24 26.6045 33.8633 26.0912 34.37ZM22.8312 33.91C23.2112 34.29 23.6778 34.48 24.2312 34.48C24.7845 34.48 25.2512 34.29 25.6312 33.91C26.0112 33.5233 26.2012 33.0533 26.2012 32.5C26.2012 31.9467 26.0112 31.48 25.6312 31.1C25.2512 30.7133 24.7845 30.52 24.2312 30.52C23.6778 30.52 23.2112 30.7133 22.8312 31.1C22.4512 31.48 22.2612 31.9467 22.2612 32.5C22.2612 33.0533 22.4512 33.5233 22.8312 33.91ZM27.9656 35V27.7H28.6256V35H27.9656ZM30.6962 28.8C30.6028 28.8933 30.4895 28.94 30.3562 28.94C30.2228 28.94 30.1095 28.8933 30.0162 28.8C29.9228 28.7067 29.8762 28.5933 29.8762 28.46C29.8762 28.3267 29.9228 28.2133 30.0162 28.12C30.1095 28.0267 30.2228 27.98 30.3562 27.98C30.4895 27.98 30.6028 28.0267 30.6962 28.12C30.7895 28.2133 30.8362 28.3267 30.8362 28.46C30.8362 28.5933 30.7895 28.7067 30.6962 28.8ZM30.0262 35V30H30.6862V35H30.0262ZM36.2767 34.37C35.7701 34.87 35.1501 35.12 34.4167 35.12C33.6834 35.12 33.0601 34.87 32.5467 34.37C32.0401 33.8633 31.7867 33.24 31.7867 32.5C31.7867 31.76 32.0401 31.14 32.5467 30.64C33.0601 30.1333 33.6834 29.88 34.4167 29.88C35.1501 29.88 35.7701 30.1333 36.2767 30.64C36.7901 31.14 37.0467 31.76 37.0467 32.5C37.0467 33.24 36.7901 33.8633 36.2767 34.37ZM33.0167 33.91C33.3967 34.29 33.8634 34.48 34.4167 34.48C34.9701 34.48 35.4367 34.29 35.8167 33.91C36.1967 33.5233 36.3867 33.0533 36.3867 32.5C36.3867 31.9467 36.1967 31.48 35.8167 31.1C35.4367 30.7133 34.9701 30.52 34.4167 30.52C33.8634 30.52 33.3967 30.7133 33.0167 31.1C32.6367 31.48 32.4467 31.9467 32.4467 32.5C32.4467 33.0533 32.6367 33.5233 33.0167 33.91Z" fill="#91A6A3"/>
<defs>
<clipPath id="clip0_123_921">
<rect width="22" height="22" fill="white" transform="translate(8)"/>
</clipPath>
</defs>
</svg>
