<svg width="22" height="22" viewBox="0 0 22 22" fill="none" xmlns="http://www.w3.org/2000/svg">
<g clip-path="url(#clip0_133_995)">
<path d="M9.9 13.2H1.1V19.8C1.1 20.3835 1.33179 20.9431 1.74437 21.3556C2.15695 21.7682 2.71652 22 3.3 22H18.7C19.2835 22 19.8431 21.7682 20.2556 21.3556C20.6682 20.9431 20.9 20.3835 20.9 19.8V13.2H12.1V15.4H9.9V13.2ZM9.9 12.1H0V5.5C0 4.29 0.99 3.3 2.2 3.3H6.6V2.2C6.6 1.61652 6.83179 1.05695 7.24437 0.644365C7.65695 0.231785 8.21652 0 8.8 0L13.2 0C13.7835 0 14.3431 0.231785 14.7556 0.644365C15.1682 1.05695 15.4 1.61652 15.4 2.2V3.3H19.8C20.3835 3.3 20.9431 3.53179 21.3556 3.94437C21.7682 4.35695 22 4.91652 22 5.5V12.1H12.1V9.9H9.9V12.1ZM13.2 3.3V2.2H8.8V3.3H13.2Z" fill="#51B276"/>
</g>
<defs>
<clipPath id="clip0_133_995">
<rect width="22" height="22" fill="white"/>
</clipPath>
</defs>
</svg>
