<svg width="38" height="39" viewBox="0 0 38 39" fill="none" xmlns="http://www.w3.org/2000/svg">
<g clip-path="url(#clip0_830_5057)">
<path d="M17.9 13.6883H9.1V20.2883C9.1 20.8718 9.33179 21.4313 9.74437 21.8439C10.1569 22.2565 10.7165 22.4883 11.3 22.4883H26.7C27.2835 22.4883 27.8431 22.2565 28.2556 21.8439C28.6682 21.4313 28.9 20.8718 28.9 20.2883V13.6883H20.1V15.8883H17.9V13.6883ZM17.9 12.5883H8V5.98828C8 4.77828 8.99 3.78828 10.2 3.78828H14.6V2.68828C14.6 2.1048 14.8318 1.54523 15.2444 1.13265C15.6569 0.720066 16.2165 0.488281 16.8 0.488281L21.2 0.488281C21.7835 0.488281 22.3431 0.720066 22.7556 1.13265C23.1682 1.54523 23.4 2.1048 23.4 2.68828V3.78828H27.8C28.3835 3.78828 28.9431 4.02007 29.3556 4.43265C29.7682 4.84523 30 5.40481 30 5.98828V12.5883H20.1V10.3883H17.9V12.5883ZM21.2 3.78828V2.68828H16.8V3.78828H21.2Z" fill="#7351F4"/>
</g>
<path d="M3.3 28.4883C3.92667 28.4883 4.45 28.6983 4.87 29.1183C5.29 29.5383 5.5 30.0616 5.5 30.6883C5.5 31.3149 5.29 31.8383 4.87 32.2583C4.45 32.6783 3.92667 32.8883 3.3 32.8883H1.5V35.4883H0.8V28.4883H3.3ZM3.3 32.2283C3.73333 32.2283 4.09 32.0849 4.37 31.7983C4.65667 31.5049 4.8 31.1349 4.8 30.6883C4.8 30.2416 4.65667 29.8749 4.37 29.5883C4.09 29.2949 3.73333 29.1483 3.3 29.1483H1.5V32.2283H3.3ZM10.388 34.8583C9.88138 35.3583 9.26138 35.6083 8.52805 35.6083C7.79471 35.6083 7.17138 35.3583 6.65805 34.8583C6.15138 34.3516 5.89805 33.7283 5.89805 32.9883C5.89805 32.2483 6.15138 31.6283 6.65805 31.1283C7.17138 30.6216 7.79471 30.3683 8.52805 30.3683C9.26138 30.3683 9.88138 30.6216 10.388 31.1283C10.9014 31.6283 11.158 32.2483 11.158 32.9883C11.158 33.7283 10.9014 34.3516 10.388 34.8583ZM7.12805 34.3983C7.50805 34.7783 7.97471 34.9683 8.52805 34.9683C9.08138 34.9683 9.54805 34.7783 9.92805 34.3983C10.308 34.0116 10.498 33.5416 10.498 32.9883C10.498 32.4349 10.308 31.9683 9.92805 31.5883C9.54805 31.2016 9.08138 31.0083 8.52805 31.0083C7.97471 31.0083 7.50805 31.2016 7.12805 31.5883C6.74805 31.9683 6.55805 32.4349 6.55805 32.9883C6.55805 33.5416 6.74805 34.0116 7.12805 34.3983ZM12.9225 31.3183C13.2292 30.7116 13.7558 30.4083 14.5025 30.4083V31.0483C14.0492 31.0483 13.6725 31.1816 13.3725 31.4483C13.0725 31.7149 12.9225 32.1349 12.9225 32.7083V35.4883H12.2625V30.4883H12.9225V31.3183ZM18.1547 31.1283H16.7147V34.1583C16.7147 34.4316 16.768 34.6283 16.8747 34.7483C16.9814 34.8616 17.1414 34.9216 17.3547 34.9283C17.568 34.9283 17.8347 34.9216 18.1547 34.9083V35.4883C17.4547 35.5949 16.928 35.5449 16.5747 35.3383C16.228 35.1316 16.0547 34.7383 16.0547 34.1583V31.1283H15.0047V30.4883H16.0547V29.2883L16.7147 29.0883V30.4883H18.1547V31.1283ZM21.5008 29.0083C21.0141 28.9683 20.6508 29.0516 20.4108 29.2583C20.1774 29.4649 20.0608 29.8083 20.0608 30.2883V30.4883H21.5008V31.1283H20.0608V35.4883H19.4008V31.1283H18.5508V30.4883H19.4008V30.2883C19.4008 29.6349 19.5808 29.1416 19.9408 28.8083C20.3074 28.4683 20.8274 28.3216 21.5008 28.3683V29.0083ZM26.0912 34.8583C25.5845 35.3583 24.9645 35.6083 24.2312 35.6083C23.4978 35.6083 22.8745 35.3583 22.3612 34.8583C21.8545 34.3516 21.6012 33.7283 21.6012 32.9883C21.6012 32.2483 21.8545 31.6283 22.3612 31.1283C22.8745 30.6216 23.4978 30.3683 24.2312 30.3683C24.9645 30.3683 25.5845 30.6216 26.0912 31.1283C26.6045 31.6283 26.8612 32.2483 26.8612 32.9883C26.8612 33.7283 26.6045 34.3516 26.0912 34.8583ZM22.8312 34.3983C23.2112 34.7783 23.6778 34.9683 24.2312 34.9683C24.7845 34.9683 25.2512 34.7783 25.6312 34.3983C26.0112 34.0116 26.2012 33.5416 26.2012 32.9883C26.2012 32.4349 26.0112 31.9683 25.6312 31.5883C25.2512 31.2016 24.7845 31.0083 24.2312 31.0083C23.6778 31.0083 23.2112 31.2016 22.8312 31.5883C22.4512 31.9683 22.2612 32.4349 22.2612 32.9883C22.2612 33.5416 22.4512 34.0116 22.8312 34.3983ZM27.9656 35.4883V28.1883H28.6256V35.4883H27.9656ZM30.6962 29.2883C30.6028 29.3816 30.4895 29.4283 30.3562 29.4283C30.2228 29.4283 30.1095 29.3816 30.0162 29.2883C29.9228 29.1949 29.8762 29.0816 29.8762 28.9483C29.8762 28.8149 29.9228 28.7016 30.0162 28.6083C30.1095 28.5149 30.2228 28.4683 30.3562 28.4683C30.4895 28.4683 30.6028 28.5149 30.6962 28.6083C30.7895 28.7016 30.8362 28.8149 30.8362 28.9483C30.8362 29.0816 30.7895 29.1949 30.6962 29.2883ZM30.0262 35.4883V30.4883H30.6862V35.4883H30.0262ZM36.2767 34.8583C35.7701 35.3583 35.1501 35.6083 34.4167 35.6083C33.6834 35.6083 33.0601 35.3583 32.5467 34.8583C32.0401 34.3516 31.7867 33.7283 31.7867 32.9883C31.7867 32.2483 32.0401 31.6283 32.5467 31.1283C33.0601 30.6216 33.6834 30.3683 34.4167 30.3683C35.1501 30.3683 35.7701 30.6216 36.2767 31.1283C36.7901 31.6283 37.0467 32.2483 37.0467 32.9883C37.0467 33.7283 36.7901 34.3516 36.2767 34.8583ZM33.0167 34.3983C33.3967 34.7783 33.8634 34.9683 34.4167 34.9683C34.9701 34.9683 35.4367 34.7783 35.8167 34.3983C36.1967 34.0116 36.3867 33.5416 36.3867 32.9883C36.3867 32.4349 36.1967 31.9683 35.8167 31.5883C35.4367 31.2016 34.9701 31.0083 34.4167 31.0083C33.8634 31.0083 33.3967 31.2016 33.0167 31.5883C32.6367 31.9683 32.4467 32.4349 32.4467 32.9883C32.4467 33.5416 32.6367 34.0116 33.0167 34.3983Z" fill="#7351F4"/>
<defs>
<clipPath id="clip0_830_5057">
<rect width="22" height="22" fill="white" transform="translate(8 0.488281)"/>
</clipPath>
</defs>
</svg>
