<svg width="16" height="15" viewBox="0 0 16 15" fill="none" xmlns="http://www.w3.org/2000/svg">
<rect x="0.49585" y="2.60474" width="12.8365" height="12.5031" rx="6" transform="rotate(-11.1289 0.49585 2.60474)" fill="#A7C16C"/>
<path d="M11.2819 4.78414C11.2266 4.70106 11.1405 4.64331 11.0427 4.62353C10.9944 4.61332 10.9447 4.61266 10.8962 4.62159L9.04491 4.98576C8.94671 5.00508 8.86021 5.06261 8.80443 5.14571C8.74866 5.2288 8.72817 5.33065 8.74749 5.42885C8.76681 5.52704 8.82434 5.61354 8.90744 5.66932C8.99053 5.7251 9.09238 5.74558 9.19058 5.72626L10.1495 5.53762L8.48697 8.01447L7.02849 7.03226C6.98724 7.00433 6.94087 6.98484 6.89206 6.97492C6.84324 6.965 6.79294 6.96484 6.74407 6.97445C6.69519 6.98407 6.6487 7.00327 6.60728 7.03094C6.56586 7.05861 6.53033 7.09421 6.50273 7.13569L4.71823 9.79419C4.6903 9.83544 4.67081 9.88181 4.66089 9.93062C4.65097 9.97944 4.65081 10.0297 4.66043 10.0786C4.67004 10.1275 4.68924 10.174 4.71691 10.2154C4.74458 10.2568 4.78018 10.2924 4.82166 10.3199C4.8629 10.3479 4.90927 10.3674 4.95809 10.3773C5.00691 10.3872 5.0572 10.3874 5.10608 10.3778C5.15496 10.3681 5.20145 10.3489 5.24287 10.3213C5.28429 10.2936 5.31982 10.258 5.34741 10.2165L6.92002 7.86891L8.3785 8.85111C8.41974 8.87904 8.46611 8.89853 8.51493 8.90845C8.56374 8.91837 8.61404 8.91853 8.66292 8.90892C8.7118 8.8993 8.75829 8.8801 8.79971 8.85243C8.84113 8.82476 8.87666 8.78916 8.90425 8.74768L10.7743 5.95698L10.9629 6.91593C10.9822 7.01413 11.0398 7.10063 11.1229 7.1564C11.206 7.21218 11.3078 7.23266 11.406 7.21335C11.5042 7.19403 11.5907 7.13649 11.6465 7.0534C11.7022 6.97031 11.7227 6.86846 11.7034 6.77026L11.3392 4.91901C11.3291 4.87074 11.3097 4.82492 11.2819 4.78414Z" fill="#4B690A"/>
</svg>
