<svg width="25" height="26" viewBox="0 0 25 26" fill="none" xmlns="http://www.w3.org/2000/svg">
<path d="M14.2979 25.3535H9.78117C9.49817 25.3536 9.22365 25.2569 9.00315 25.0795C8.78265 24.9021 8.62941 24.6546 8.56884 24.3782L8.06381 22.0404C7.39009 21.7452 6.75126 21.376 6.15908 20.9397L3.8796 21.6656C3.60979 21.7517 3.31867 21.7428 3.05457 21.6406C2.79048 21.5383 2.56931 21.3488 2.42779 21.1035L0.164441 17.1936C0.0244034 16.948 -0.0281633 16.6622 0.0153414 16.383C0.0588461 16.1037 0.195846 15.8474 0.403929 15.6561L2.17217 14.043C2.09175 13.3123 2.09175 12.5749 2.17217 11.8442L0.403929 10.2348C0.195552 10.0434 0.058365 9.7869 0.0148532 9.50734C-0.0286586 9.22779 0.0240857 8.94174 0.164441 8.69608L2.42282 4.78363C2.56434 4.53833 2.78552 4.34881 3.04961 4.24656C3.3137 4.14431 3.60483 4.13547 3.87464 4.22151L6.15411 4.94742C6.45689 4.72406 6.77207 4.5156 7.09717 4.32699C7.41111 4.15078 7.73374 3.99071 8.06381 3.84801L8.57009 1.5127C8.63036 1.23623 8.78331 0.988662 9.00358 0.811046C9.22385 0.633429 9.49821 0.536431 9.78117 0.536133H14.2979C14.5809 0.536431 14.8553 0.633429 15.0755 0.811046C15.2958 0.988662 15.4488 1.23623 15.509 1.5127L16.0203 3.84925C16.6931 4.14615 17.3318 4.5152 17.925 4.9499L20.2057 4.22399C20.4754 4.13827 20.7662 4.14727 21.03 4.24951C21.2939 4.35174 21.5148 4.54107 21.6563 4.78611L23.9147 8.69857C24.2025 9.2036 24.1033 9.84265 23.6752 10.236L21.9069 11.8491C21.9874 12.5799 21.9874 13.3172 21.9069 14.048L23.6752 15.6611C24.1033 16.0557 24.2025 16.6935 23.9147 17.1985L21.6563 21.111C21.5148 21.3563 21.2936 21.5458 21.0295 21.648C20.7654 21.7503 20.4743 21.7591 20.2045 21.6731L17.925 20.9472C17.3333 21.3832 16.6948 21.7519 16.0215 22.0466L15.509 24.3782C15.4485 24.6544 15.2955 24.9017 15.0752 25.0791C14.855 25.2564 14.5807 25.3533 14.2979 25.3535ZM12.0346 7.98134C10.7182 7.98134 9.45572 8.50428 8.52488 9.43511C7.59405 10.3659 7.07112 11.6284 7.07112 12.9448C7.07112 14.2612 7.59405 15.5237 8.52488 16.4545C9.45572 17.3854 10.7182 17.9083 12.0346 17.9083C13.351 17.9083 14.6135 17.3854 15.5443 16.4545C16.4751 15.5237 16.9981 14.2612 16.9981 12.9448C16.9981 11.6284 16.4751 10.3659 15.5443 9.43511C14.6135 8.50428 13.351 7.98134 12.0346 7.98134Z" fill="#CBD5E1"/>
</svg>
