<svg width="20" height="20" viewBox="0 0 20 20" fill="none" xmlns="http://www.w3.org/2000/svg">
<circle cx="10" cy="10" r="8.75" fill="#5890EE"/>
<path d="M4.9375 6.875C4.62684 6.875 4.375 7.12938 4.375 7.44318V12.5568C4.375 12.8706 4.62684 13.125 4.9375 13.125H5.21875C5.52941 13.125 5.78125 12.8706 5.78125 12.5568V8.29545H8.3125C8.62316 8.29545 8.875 8.04107 8.875 7.72727V7.44318C8.875 7.12938 8.62316 6.875 8.3125 6.875H4.9375Z" fill="white"/>
<path d="M10.5625 6.875H10.2812C9.97059 6.875 9.71875 7.12938 9.71875 7.44318V12.5568C9.71875 12.8706 9.97059 13.125 10.2812 13.125H10.5625C10.8732 13.125 11.125 12.8706 11.125 12.5568V7.44318C11.125 7.12938 10.8732 6.875 10.5625 6.875Z" fill="white"/>
<path d="M15.0625 6.875H14.7812C14.4706 6.875 14.2188 7.12938 14.2188 7.44318V12.5568C14.2188 12.8706 14.4706 13.125 14.7812 13.125H15.0625C15.3732 13.125 15.625 12.8706 15.625 12.5568V7.44318C15.625 7.12938 15.3732 6.875 15.0625 6.875Z" fill="white"/>
<path d="M12.5313 8.01138H12.8125C13.1232 8.01138 13.375 8.26576 13.375 8.57956V11.7046C13.375 12.0184 13.1232 12.2727 12.8125 12.2727H12.5313C12.2206 12.2727 11.9688 12.0184 11.9688 11.7046V8.57956C11.9688 8.26576 12.2206 8.01138 12.5313 8.01138Z" fill="white"/>
<path d="M7.46875 9.7159H6.90625C6.59559 9.7159 6.34375 9.97028 6.34375 10.2841V10.5682C6.34375 10.882 6.59559 11.1364 6.90625 11.1364H7.46875C7.77941 11.1364 8.03125 10.882 8.03125 10.5682V10.2841C8.03125 9.97028 7.77941 9.7159 7.46875 9.7159Z" fill="white"/>
</svg>
